<svg width="267" height="341" viewBox="0 0 267 341" fill="none" xmlns="http://www.w3.org/2000/svg">
<circle cx="4" cy="16" r="4" fill="#FF6700"/>
<circle cx="4" cy="41" r="4" fill="#FF6700"/>
<circle cx="4" cy="66" r="4" fill="#FF6700"/>
<circle cx="4" cy="91" r="4" fill="#FF6700"/>
<circle cx="4" cy="116" r="4" fill="#FF6700"/>
<circle cx="4" cy="141" r="4" fill="#FF6700"/>
<circle cx="4" cy="166" r="4" fill="#FF6700"/>
<circle cx="4" cy="191" r="4" fill="#FF6700"/>
<circle cx="4" cy="216" r="4" fill="#FF6700"/>
<circle cx="4" cy="241" r="4" fill="#FF6700"/>
<circle cx="4" cy="266" r="4" fill="#FF6700"/>
<circle cx="4" cy="291" r="4" fill="#FF6700"/>
<circle cx="4" cy="316" r="4" fill="#FF6700"/>
<circle cx="35" cy="16" r="4" fill="#FF6700"/>
<circle cx="35" cy="41" r="4" fill="#FF6700"/>
<circle cx="35" cy="66" r="4" fill="#FF6700"/>
<circle cx="35" cy="91" r="4" fill="#FF6700"/>
<circle cx="35" cy="116" r="4" fill="#FF6700"/>
<circle cx="35" cy="141" r="4" fill="#FF6700"/>
<circle cx="35" cy="166" r="4" fill="#FF6700"/>
<circle cx="35" cy="191" r="4" fill="#FF6700"/>
<circle cx="35" cy="216" r="4" fill="#FF6700"/>
<circle cx="35" cy="241" r="4" fill="#FF6700"/>
<circle cx="35" cy="266" r="4" fill="#FF6700"/>
<circle cx="35" cy="291" r="4" fill="#FF6700"/>
<circle cx="35" cy="316" r="4" fill="#FF6700"/>
<circle cx="66" cy="16" r="4" fill="#FF6700"/>
<circle cx="66" cy="41" r="4" fill="#FF6700"/>
<circle cx="66" cy="66" r="4" fill="#FF6700"/>
<circle cx="66" cy="91" r="4" fill="#FF6700"/>
<circle cx="66" cy="116" r="4" fill="#FF6700"/>
<circle cx="66" cy="141" r="4" fill="#FF6700"/>
<circle cx="66" cy="166" r="4" fill="#FF6700"/>
<circle cx="66" cy="191" r="4" fill="#FF6700"/>
<circle cx="66" cy="216" r="4" fill="#FF6700"/>
<circle cx="66" cy="241" r="4" fill="#FF6700"/>
<circle cx="66" cy="266" r="4" fill="#FF6700"/>
<circle cx="66" cy="291" r="4" fill="#FF6700"/>
<circle cx="66" cy="316" r="4" fill="#FF6700"/>
<circle cx="97" cy="16" r="4" fill="#FF6700"/>
<circle cx="97" cy="41" r="4" fill="#FF6700"/>
<circle cx="97" cy="66" r="4" fill="#FF6700"/>
<circle cx="97" cy="91" r="4" fill="#FF6700"/>
<circle cx="97" cy="116" r="4" fill="#FF6700"/>
<circle cx="97" cy="141" r="4" fill="#FF6700"/>
<circle cx="97" cy="166" r="4" fill="#FF6700"/>
<circle cx="97" cy="191" r="4" fill="#FF6700"/>
<circle cx="97" cy="216" r="4" fill="#FF6700"/>
<circle cx="97" cy="241" r="4" fill="#FF6700"/>
<circle cx="97" cy="266" r="4" fill="#FF6700"/>
<circle cx="97" cy="291" r="4" fill="#FF6700"/>
<circle cx="97" cy="316" r="4" fill="#FF6700"/>
<circle cx="128" cy="16" r="4" fill="#FF6700"/>
<circle cx="128" cy="41" r="4" fill="#FF6700"/>
<circle cx="128" cy="66" r="4" fill="#FF6700"/>
<circle cx="128" cy="91" r="4" fill="#FF6700"/>
<circle cx="128" cy="116" r="4" fill="#FF6700"/>
<circle cx="128" cy="141" r="4" fill="#FF6700"/>
<circle cx="128" cy="166" r="4" fill="#FF6700"/>
<circle cx="128" cy="191" r="4" fill="#FF6700"/>
<circle cx="128" cy="216" r="4" fill="#FF6700"/>
<circle cx="128" cy="241" r="4" fill="#FF6700"/>
<circle cx="128" cy="266" r="4" fill="#FF6700"/>
<circle cx="128" cy="291" r="4" fill="#FF6700"/>
<circle cx="128" cy="316" r="4" fill="#FF6700"/>
<circle cx="159" cy="16" r="4" fill="#FF6700"/>
<circle cx="159" cy="41" r="4" fill="#FF6700"/>
<circle cx="159" cy="66" r="4" fill="#FF6700"/>
<circle cx="159" cy="91" r="4" fill="#FF6700"/>
<circle cx="159" cy="116" r="4" fill="#FF6700"/>
<circle cx="159" cy="141" r="4" fill="#FF6700"/>
<circle cx="159" cy="166" r="4" fill="#FF6700"/>
<circle cx="159" cy="191" r="4" fill="#FF6700"/>
<circle cx="159" cy="216" r="4" fill="#FF6700"/>
<circle cx="159" cy="241" r="4" fill="#FF6700"/>
<circle cx="159" cy="266" r="4" fill="#FF6700"/>
<circle cx="159" cy="291" r="4" fill="#FF6700"/>
<circle cx="159" cy="316" r="4" fill="#FF6700"/>
<circle cx="190" cy="16" r="4" fill="#FF6700"/>
<circle cx="190" cy="41" r="4" fill="#FF6700"/>
<circle cx="190" cy="66" r="4" fill="#FF6700"/>
<circle cx="190" cy="91" r="4" fill="#FF6700"/>
<circle cx="190" cy="116" r="4" fill="#FF6700"/>
<circle cx="190" cy="141" r="4" fill="#FF6700"/>
<circle cx="190" cy="166" r="4" fill="#FF6700"/>
<circle cx="190" cy="191" r="4" fill="#FF6700"/>
<circle cx="190" cy="216" r="4" fill="#FF6700"/>
<circle cx="190" cy="241" r="4" fill="#FF6700"/>
<circle cx="190" cy="266" r="4" fill="#FF6700"/>
<circle cx="190" cy="291" r="4" fill="#FF6700"/>
<circle cx="190" cy="316" r="4" fill="#FF6700"/>
<circle cx="221" cy="16" r="4" fill="#FF6700"/>
<circle cx="221" cy="41" r="4" fill="#FF6700"/>
<circle cx="221" cy="66" r="4" fill="#FF6700"/>
<circle cx="221" cy="91" r="4" fill="#FF6700"/>
<circle cx="221" cy="116" r="4" fill="#FF6700"/>
<circle cx="221" cy="141" r="4" fill="#FF6700"/>
<circle cx="221" cy="166" r="4" fill="#FF6700"/>
<circle cx="221" cy="191" r="4" fill="#FF6700"/>
<circle cx="221" cy="216" r="4" fill="#FF6700"/>
<circle cx="221" cy="241" r="4" fill="#FF6700"/>
<circle cx="221" cy="266" r="4" fill="#FF6700"/>
<circle cx="221" cy="291" r="4" fill="#FF6700"/>
<circle cx="221" cy="316" r="4" fill="#FF6700"/>
<circle cx="252" cy="16" r="4" fill="#FF6700"/>
<circle cx="252" cy="41" r="4" fill="#FF6700"/>
<circle cx="252" cy="66" r="4" fill="#FF6700"/>
<circle cx="252" cy="91" r="4" fill="#FF6700"/>
<circle cx="252" cy="116" r="4" fill="#FF6700"/>
<circle cx="252" cy="141" r="4" fill="#FF6700"/>
<circle cx="252" cy="166" r="4" fill="#FF6700"/>
<circle cx="252" cy="191" r="4" fill="#FF6700"/>
<circle cx="252" cy="216" r="4" fill="#FF6700"/>
<circle cx="252" cy="241" r="4" fill="#FF6700"/>
<circle cx="252" cy="266" r="4" fill="#FF6700"/>
<circle cx="252" cy="291" r="4" fill="#FF6700"/>
<circle cx="252" cy="316" r="4" fill="#FF6700"/>
<rect x="1" width="266" height="341" fill="url(#paint0_linear_27_330)"/>
<defs>
<linearGradient id="paint0_linear_27_330" x1="230" y1="171.078" x2="-488" y2="171.078" gradientUnits="userSpaceOnUse">
<stop stop-color="white"/>
<stop offset="1" stop-color="white" stop-opacity="0.1"/>
</linearGradient>
</defs>
</svg>
