<svg width="239" height="58" viewBox="0 0 239 58" fill="none" xmlns="http://www.w3.org/2000/svg">
<path d="M83.2216 43.3629C79.8322 43.3629 77.1459 42.4038 75.1607 40.484C73.1748 38.5648 72.1823 35.7922 72.1823 32.1649V25.6528C72.1823 22.0262 73.1749 19.253 75.1607 17.3337C77.146 15.4145 79.8322 14.4543 83.2216 14.4543C86.5572 14.4543 89.1312 15.3815 90.9448 17.2342C92.7579 19.0874 93.6652 21.6157 93.6652 24.8187V25.0569H89.4163V24.6998C89.4163 22.8201 88.9062 21.2845 87.8872 20.0931C86.8681 18.9018 85.3126 18.3065 83.2216 18.3065C81.1032 18.3065 79.4492 18.9487 78.2579 20.2324C77.0667 21.5166 76.4708 23.2967 76.4708 25.573V32.2441C76.4708 34.4946 77.0667 36.2686 78.2579 37.5655C79.4492 38.863 81.1032 39.5111 83.2216 39.5111C85.3126 39.5111 86.8681 38.9092 87.8872 37.7042C88.9062 36.5002 89.4163 34.9711 89.4163 33.1179V32.4427H93.6652V32.999C93.6652 36.2025 92.7579 38.7309 90.9448 40.5835C89.1312 42.4367 86.5572 43.3629 83.2216 43.3629Z" fill="#14140F"/>
<path d="M103.234 43.3628C101.831 43.3628 100.58 43.1245 99.4818 42.648C98.3829 42.1715 97.5097 41.4704 96.861 40.5434C96.2123 39.6173 95.8882 38.4926 95.8882 37.1682C95.8882 35.8185 96.2123 34.7004 96.861 33.8128C97.5097 32.9264 98.3962 32.2578 99.5214 31.8078C100.647 31.3577 101.924 31.1326 103.354 31.1326H109.31V29.8615C109.31 28.7236 108.966 27.8102 108.277 27.1219C107.589 26.4335 106.53 26.0891 105.101 26.0891C103.697 26.0891 102.625 26.4209 101.884 27.0823C101.143 27.7442 100.653 28.6048 100.415 29.6635L96.603 28.4321C96.9204 27.3739 97.43 26.4138 98.1321 25.5532C98.8331 24.6932 99.7663 23.9982 100.931 23.4684C102.096 22.9396 103.499 22.6743 105.14 22.6743C107.682 22.6743 109.681 23.3236 111.136 24.6199C112.592 25.9174 113.321 27.7574 113.321 30.14V38.2009C113.321 38.995 113.691 39.3922 114.432 39.3922H116.1V42.807H113.042C112.116 42.807 111.361 42.5687 110.779 42.0922C110.197 41.6158 109.906 40.9676 109.906 40.1466V40.0272H109.31C109.098 40.4245 108.78 40.8878 108.357 41.4171C107.933 41.947 107.311 42.4037 106.491 42.7873C105.67 43.1708 104.585 43.3628 103.234 43.3628ZM103.83 39.9876C105.471 39.9876 106.794 39.5183 107.801 38.5779C108.807 37.6386 109.31 36.3484 109.31 34.7064V34.3091H103.592C102.506 34.3091 101.633 34.5414 100.971 35.0041C100.309 35.4674 99.978 36.1497 99.978 37.0493C99.978 37.9496 100.322 38.6643 101.011 39.1937C101.699 39.7235 102.639 39.9876 103.83 39.9876Z" fill="#14140F"/>
<path d="M118.681 42.8071V23.2301H122.692V25.5334H123.327C123.645 24.713 124.154 24.111 124.856 23.7269C125.557 23.3434 126.425 23.1509 127.457 23.1509H129.8V26.844H127.298C125.974 26.844 124.889 27.2083 124.042 27.9357C123.194 28.6643 122.771 29.7823 122.771 31.2911V42.8071H118.681Z" fill="#14140F"/>
<path d="M141.633 43.3629C139.648 43.3629 137.913 42.9464 136.431 42.1122C134.948 41.2786 133.79 40.1006 132.957 38.5781C132.123 37.0561 131.705 35.2893 131.705 33.2771V32.8006C131.705 30.7625 132.116 28.9819 132.937 27.4594C133.757 25.9375 134.902 24.7594 136.371 23.9252C137.841 23.0916 139.541 22.6746 141.474 22.6746C143.353 22.6746 145.001 23.0916 146.418 23.9252C147.834 24.7594 148.94 25.9176 149.734 27.4C150.528 28.8829 150.925 30.6167 150.925 32.602V34.1504H135.875C135.928 35.8715 136.504 37.2416 137.602 38.2607C138.701 39.2797 140.071 39.7892 141.713 39.7892C143.247 39.7892 144.406 39.4459 145.187 38.757C145.968 38.0687 146.57 37.2746 146.994 36.3745L150.369 38.1215C149.998 38.8632 149.462 39.644 148.761 40.4644C148.059 41.2854 147.139 41.9731 146.001 42.5294C144.863 43.0852 143.406 43.3629 141.633 43.3629ZM135.915 31.0133H146.756C146.649 29.531 146.12 28.3727 145.167 27.5392C144.214 26.705 142.969 26.2879 141.434 26.2879C139.899 26.2879 138.648 26.705 137.682 27.5392C136.715 28.3728 136.127 29.5311 135.915 31.0133Z" fill="#14140F"/>
<path d="M163.434 43.3629C161.448 43.3629 159.714 42.9464 158.232 42.1122C156.749 41.2786 155.591 40.1006 154.757 38.5781C153.923 37.0561 153.507 35.2893 153.507 33.2771V32.8006C153.507 30.7625 153.916 28.9819 154.737 27.4594C155.558 25.9375 156.703 24.7594 158.172 23.9252C159.642 23.0916 161.342 22.6746 163.275 22.6746C165.154 22.6746 166.802 23.0916 168.219 23.9252C169.635 24.7594 170.74 25.9176 171.535 27.4C172.329 28.8829 172.726 30.6167 172.726 32.602V34.1504H157.676C157.728 35.8715 158.305 37.2416 159.403 38.2607C160.501 39.2797 161.871 39.7892 163.513 39.7892C165.048 39.7892 166.207 39.4459 166.988 38.757C167.768 38.0687 168.371 37.2746 168.794 36.3745L172.169 38.1215C171.799 38.8632 171.263 39.644 170.562 40.4644C169.86 41.2854 168.94 41.9731 167.802 42.5294C166.663 43.0852 165.207 43.3629 163.434 43.3629ZM157.715 31.0133H168.556C168.45 29.531 167.921 28.3727 166.968 27.5392C166.015 26.705 164.77 26.2879 163.235 26.2879C161.7 26.2879 160.449 26.705 159.483 27.5392C158.516 28.3728 157.927 29.5311 157.715 31.0133Z" fill="#14140F"/>
<path d="M176.26 42.8071V23.2301H180.271V25.5334H180.906C181.224 24.713 181.733 24.111 182.435 23.7269C183.136 23.3434 184.003 23.1509 185.036 23.1509H187.379V26.844H184.877C183.553 26.844 182.468 27.2083 181.62 27.9357C180.773 28.6643 180.35 29.7823 180.35 31.2911V42.8071H176.26Z" fill="#14140F"/>
<path d="M189.125 42.807V37.248L203.739 19.418V18.8622H189.562V15.0105H208.146V20.5695L193.533 38.399V38.9553H208.305V42.807H189.125Z" fill="#14140F"/>
<path d="M217.835 43.3628C216.432 43.3628 215.181 43.1245 214.083 42.648C212.984 42.1715 212.11 41.4704 211.462 40.5434C210.813 39.6173 210.489 38.4926 210.489 37.1682C210.489 35.8185 210.813 34.7004 211.462 33.8128C212.11 32.9264 212.997 32.2578 214.123 31.8078C215.247 31.3576 216.525 31.1326 217.955 31.1326H223.911V29.8615C223.911 28.7236 223.566 27.8102 222.879 27.1219C222.19 26.4335 221.131 26.0891 219.702 26.0891C218.298 26.0891 217.226 26.4209 216.485 27.0823C215.744 27.7442 215.254 28.6048 215.016 29.6635L211.204 28.4321C211.522 27.3739 212.031 26.4138 212.733 25.5532C213.434 24.6932 214.367 23.9982 215.532 23.4684C216.697 22.9396 218.1 22.6743 219.741 22.6743C222.283 22.6743 224.281 23.3236 225.738 24.6199C227.193 25.9174 227.922 27.7574 227.922 30.14V38.2009C227.922 38.995 228.292 39.3922 229.034 39.3922H230.701V42.807H227.644C226.717 42.807 225.962 42.5687 225.38 42.0922C224.797 41.6158 224.506 40.9676 224.506 40.1466V40.0272H223.911C223.698 40.4245 223.381 40.8878 222.958 41.4171C222.534 41.947 221.912 42.4037 221.091 42.7873C220.27 43.1708 219.185 43.3628 217.835 43.3628ZM218.431 39.9876C220.072 39.9876 221.396 39.5183 222.402 38.5779C223.407 37.6386 223.911 36.3484 223.911 34.7064V34.3091H218.193C217.107 34.3091 216.233 34.5414 215.572 35.0041C214.91 35.4674 214.579 36.1497 214.579 37.0493C214.579 37.9496 214.923 38.6643 215.612 39.1937C216.3 39.7235 217.24 39.9876 218.431 39.9876Z" fill="#14140F"/>
<path d="M235.744 43.3629C234.817 43.3629 234.042 43.0587 233.421 42.4496C232.798 41.841 232.487 41.0602 232.487 40.1072C232.487 39.1542 232.798 38.3795 233.421 37.7841C234.043 37.1882 234.817 36.8905 235.744 36.8905C236.67 36.8905 237.445 37.1953 238.067 37.8039C238.689 38.413 239 39.1806 239 40.1072C239 41.0603 238.689 41.841 238.067 42.4496C237.445 43.0587 236.67 43.3629 235.744 43.3629ZM233.639 34.5079V15.0107H237.809V34.5079H233.639Z" fill="#14140F"/>
<path d="M28.9085 57.817C44.8742 57.817 57.817 44.8742 57.817 28.9085C57.817 12.9428 44.8742 0 28.9085 0C12.9428 0 0 12.9428 0 28.9085C0 44.8742 12.9428 57.817 28.9085 57.817Z" fill="#0068FF"/>
<path d="M17.2686 23.081C19.3748 23.081 21.0822 21.3736 21.0822 19.2674C21.0822 17.1612 19.3748 15.4539 17.2686 15.4539C15.1625 15.4539 13.4551 17.1612 13.4551 19.2674C13.4551 21.3736 15.1625 23.081 17.2686 23.081Z" fill="#FFBA00"/>
<path d="M40.5484 23.081C42.6545 23.081 44.3619 21.3736 44.3619 19.2674C44.3619 17.1612 42.6545 15.4539 40.5484 15.4539C38.4422 15.4539 36.7348 17.1612 36.7348 19.2674C36.7348 21.3736 38.4422 23.081 40.5484 23.081Z" fill="#FF6700"/>
<path d="M28.9083 47.8327C19.9763 47.8327 12.5308 39.7421 11.0359 29.1282C10.7431 27.0491 12.3955 25.2017 14.4951 25.2017C16.2249 25.2017 17.7031 26.4703 17.9398 28.184C18.9362 35.396 23.4756 40.8588 28.9083 40.8588C34.341 40.8588 38.8807 35.396 39.877 28.184C40.1138 26.4704 41.5919 25.2017 43.3217 25.2017C45.4214 25.2017 47.0738 27.0491 46.7809 29.1282C45.2861 39.7421 37.8405 47.8327 28.9083 47.8327Z" fill="url(#paint0_linear_1_750)"/>
<path d="M28.9075 43.7986C28.9075 46.1715 26.5873 47.8378 24.3309 47.1035C17.5271 44.8895 12.2661 37.8597 11.0368 29.1252C10.7404 27.0446 12.3909 25.1965 14.4947 25.1965C15.3548 25.1965 16.1568 25.5162 16.7729 26.045C17.3889 26.5797 17.819 27.3236 17.9352 28.1837C18.7834 34.3033 22.1797 39.1635 26.5088 40.4957C27.947 40.9382 28.9075 42.2938 28.9075 43.7986Z" fill="#FFBA00"/>
<defs>
<linearGradient id="paint0_linear_1_750" x1="11.0022" y1="36.5172" x2="46.8147" y2="36.5172" gradientUnits="userSpaceOnUse">
<stop offset="0.304" stop-color="#0068FF"/>
<stop offset="0.381" stop-color="#3367CB"/>
<stop offset="0.4705" stop-color="#696795"/>
<stop offset="0.5613" stop-color="#976767"/>
<stop offset="0.6514" stop-color="#BC6742"/>
<stop offset="0.7408" stop-color="#D96725"/>
<stop offset="0.8291" stop-color="#EE6710"/>
<stop offset="0.9161" stop-color="#FA6704"/>
<stop offset="1" stop-color="#FF6700"/>
</linearGradient>
</defs>
</svg>
