<svg width="331" height="81" viewBox="0 0 331 81" fill="none" xmlns="http://www.w3.org/2000/svg">
<path d="M115.257 60.0545C110.563 60.0545 106.842 58.7262 104.093 56.0675C101.343 53.4095 99.9679 49.5696 99.9679 44.5461V35.5273C99.9679 30.5046 101.343 26.6639 104.093 24.0058C106.842 21.3478 110.563 20.0181 115.257 20.0181C119.876 20.0181 123.441 21.3021 125.953 23.8679C128.464 26.4345 129.72 29.9361 129.72 34.372V34.702H123.836V34.2074C123.836 31.6042 123.129 29.4774 121.718 27.8274C120.307 26.1775 118.153 25.3531 115.257 25.3531C112.323 25.3531 110.032 26.2424 108.382 28.0203C106.733 29.7989 105.907 32.2642 105.907 35.4167V44.6558C105.907 47.7726 106.733 50.2294 108.382 52.0256C110.032 53.8225 112.323 54.7202 115.257 54.7202C118.153 54.7202 120.307 53.8865 121.718 52.2176C123.129 50.5502 123.836 48.4325 123.836 45.8659V44.9308H129.72V45.7013C129.72 50.1379 128.464 53.6395 125.953 56.2053C123.441 58.7719 119.876 60.0545 115.257 60.0545Z" fill="white"/>
<path d="M142.973 60.0548C141.029 60.0548 139.297 59.7248 137.776 59.0649C136.254 58.405 135.045 57.434 134.146 56.1501C133.248 54.8676 132.799 53.3099 132.799 51.4757C132.799 49.6065 133.248 48.0579 134.146 46.8287C135.045 45.601 136.272 44.6751 137.831 44.0518C139.389 43.4286 141.159 43.1168 143.138 43.1168H151.388V41.3564C151.388 39.7805 150.911 38.5154 149.957 37.5622C149.004 36.6089 147.538 36.1318 145.558 36.1318C143.614 36.1318 142.13 36.5913 141.103 37.5073C140.077 38.4241 139.398 39.6159 139.068 41.0821L133.789 39.3767C134.229 37.9113 134.934 36.5815 135.907 35.3897C136.878 34.1987 138.17 33.2361 139.783 32.5023C141.397 31.77 143.339 31.4026 145.613 31.4026C149.133 31.4026 151.901 32.3018 153.917 34.0971C155.933 35.894 156.942 38.4424 156.942 41.742V52.906C156.942 54.0057 157.455 54.5558 158.482 54.5558H160.791V59.2851H156.557C155.273 59.2851 154.229 58.9551 153.422 58.2952C152.615 57.6353 152.212 56.7376 152.212 55.6006V55.4352H151.388C151.094 55.9855 150.654 56.6271 150.068 57.3602C149.481 58.0941 148.619 58.7266 147.483 59.2577C146.346 59.7889 144.843 60.0548 142.973 60.0548ZM143.798 55.3804C146.071 55.3804 147.904 54.7304 149.297 53.4281C150.69 52.1272 151.388 50.3403 151.388 48.0663V47.5161H143.468C141.964 47.5161 140.755 47.8377 139.839 48.4785C138.921 49.1202 138.463 50.0651 138.463 51.3111C138.463 52.5579 138.94 53.5477 139.894 54.2808C140.846 55.0147 142.149 55.3804 143.798 55.3804Z" fill="white"/>
<path d="M164.366 59.2851V32.1722H169.921V35.3621H170.801C171.241 34.2259 171.946 33.3922 172.918 32.8603C173.889 32.3292 175.09 32.0625 176.52 32.0625H179.765V37.1773H176.3C174.466 37.1773 172.963 37.6818 171.791 38.6892C170.616 39.6982 170.03 41.2466 170.03 43.3362V59.2851H164.366Z" fill="white"/>
<path d="M196.153 60.0547C193.403 60.0547 191.001 59.4778 188.948 58.3225C186.894 57.168 185.291 55.5365 184.137 53.4279C182.981 51.3201 182.404 48.8732 182.404 46.0864V45.4265C182.404 42.6038 182.972 40.1379 184.109 38.0293C185.245 35.9215 186.831 34.2899 188.866 33.1347C190.901 31.9802 193.256 31.4026 195.933 31.4026C198.536 31.4026 200.818 31.9802 202.78 33.1347C204.741 34.29 206.272 35.894 207.372 37.947C208.472 40.0007 209.022 42.4019 209.022 45.1514V47.2959H188.178C188.252 49.6795 189.049 51.577 190.57 52.9884C192.092 54.3996 193.989 55.1053 196.263 55.1053C198.388 55.1053 199.993 54.6298 201.075 53.6757C202.156 52.7225 202.99 51.6228 203.577 50.3761L208.251 52.7956C207.738 53.8228 206.996 54.9042 206.024 56.0404C205.052 57.1774 203.778 58.1299 202.202 58.9004C200.626 59.67 198.609 60.0547 196.153 60.0547ZM188.233 42.9513H203.247C203.1 40.8983 202.367 39.2942 201.047 38.1397C199.727 36.9845 198.004 36.4069 195.878 36.4069C193.751 36.4069 192.019 36.9845 190.681 38.1397C189.342 39.2943 188.527 40.8984 188.233 42.9513Z" fill="white"/>
<path d="M226.346 60.0547C223.596 60.0547 221.194 59.4778 219.141 58.3225C217.088 57.168 215.484 55.5365 214.329 53.4279C213.174 51.3201 212.597 48.8732 212.597 46.0864V45.4265C212.597 42.6038 213.165 40.1379 214.302 38.0293C215.438 35.9215 217.024 34.2899 219.058 33.1347C221.094 31.9802 223.448 31.4026 226.126 31.4026C228.728 31.4026 231.01 31.9802 232.973 33.1347C234.933 34.29 236.464 35.894 237.565 37.947C238.664 40.0007 239.215 42.4019 239.215 45.1514V47.2959H218.371C218.444 49.6795 219.242 51.577 220.764 52.9884C222.284 54.3996 224.182 55.1053 226.455 55.1053C228.582 55.1053 230.186 54.6298 231.268 53.6757C232.348 52.7225 233.183 51.6228 233.77 50.3761L238.444 52.7956C237.93 53.8228 237.188 54.9042 236.217 56.0404C235.245 57.1774 233.971 58.1299 232.395 58.9004C230.818 59.67 228.801 60.0547 226.346 60.0547ZM218.426 42.9513H233.44C233.293 40.8983 232.56 39.2942 231.24 38.1397C229.92 36.9845 228.196 36.4069 226.071 36.4069C223.944 36.4069 222.212 36.9845 220.874 38.1397C219.535 39.2943 218.719 40.8984 218.426 42.9513Z" fill="white"/>
<path d="M244.109 59.2851V32.1722H249.664V35.3621H250.543C250.983 34.2259 251.688 33.3922 252.661 32.8603C253.632 32.3292 254.832 32.0625 256.263 32.0625H259.508V37.1773H256.043C254.209 37.1773 252.706 37.6818 251.533 38.6892C250.359 39.6982 249.773 41.2466 249.773 43.3362V59.2851H244.109Z" fill="white"/>
<path d="M261.927 59.2848V51.5858L282.165 26.8924V26.1227H262.532V20.7883H288.269V28.4873L268.031 53.1799V53.9504H288.489V59.2848H261.927Z" fill="white"/>
<path d="M301.688 60.0548C299.745 60.0548 298.012 59.7248 296.492 59.0649C294.97 58.405 293.76 57.434 292.861 56.1501C291.963 54.8676 291.514 53.3099 291.514 51.4757C291.514 49.6065 291.963 48.0579 292.861 46.8287C293.76 45.601 294.987 44.6751 296.546 44.0518C298.104 43.4285 299.873 43.1168 301.853 43.1168H310.102V41.3564C310.102 39.7805 309.625 38.5154 308.673 37.5622C307.719 36.6089 306.253 36.1318 304.273 36.1318C302.33 36.1318 300.844 36.5913 299.819 37.5073C298.791 38.4241 298.113 39.6159 297.783 41.0821L292.504 39.3767C292.944 37.9113 293.649 36.5815 294.621 35.3897C295.592 34.1987 296.885 33.2361 298.499 32.5023C300.111 31.77 302.055 31.4026 304.328 31.4026C307.848 31.4026 310.615 32.3018 312.632 34.0971C314.648 35.894 315.657 38.4424 315.657 41.742V52.906C315.657 54.0057 316.17 54.5558 317.197 54.5558H319.507V59.2851H315.272C313.988 59.2851 312.943 58.9551 312.137 58.2952C311.33 57.6353 310.927 56.7376 310.927 55.6006V55.4352H310.102C309.808 55.9855 309.369 56.6271 308.783 57.3602C308.196 58.0941 307.334 58.7266 306.198 59.2577C305.061 59.7889 303.558 60.0548 301.688 60.0548ZM302.513 55.3804C304.786 55.3804 306.619 54.7304 308.013 53.4281C309.405 52.1272 310.102 50.3403 310.102 48.0663V47.5161H302.183C300.68 47.5161 299.47 47.8377 298.554 48.4785C297.637 49.1202 297.179 50.0651 297.179 51.3111C297.179 52.5579 297.654 53.5477 298.608 54.2808C299.562 55.0147 300.863 55.3804 302.513 55.3804Z" fill="white"/>
<path d="M326.49 60.0544C325.206 60.0544 324.134 59.633 323.273 58.7894C322.411 57.9465 321.98 56.8652 321.98 55.5454C321.98 54.2256 322.411 53.1526 323.273 52.3281C324.134 51.5028 325.206 51.0904 326.49 51.0904C327.774 51.0904 328.846 51.5126 329.708 52.3554C330.569 53.199 331 54.2621 331 55.5454C331 56.8653 330.569 57.9465 329.708 58.7894C328.846 59.633 327.774 60.0544 326.49 60.0544ZM323.575 47.7907V20.7883H329.35V47.7907H323.575Z" fill="white"/>
<path d="M40.0365 80.0729C62.148 80.0729 80.0729 62.148 80.0729 40.0365C80.0729 17.9249 62.148 0 40.0365 0C17.9249 0 0 17.9249 0 40.0365C0 62.148 17.9249 80.0729 40.0365 80.0729Z" fill="#0068FF"/>
<path d="M23.916 31.9659C26.8329 31.9659 29.1975 29.6013 29.1975 26.6844C29.1975 23.7675 26.8329 21.4028 23.916 21.4028C20.9991 21.4028 18.6345 23.7675 18.6345 26.6844C18.6345 29.6013 20.9991 31.9659 23.916 31.9659Z" fill="#FFBA00"/>
<path d="M56.157 31.9659C59.0739 31.9659 61.4386 29.6013 61.4386 26.6844C61.4386 23.7675 59.0739 21.4028 56.157 21.4028C53.2401 21.4028 50.8755 23.7675 50.8755 26.6844C50.8755 29.6013 53.2401 31.9659 56.157 31.9659Z" fill="#FF6700"/>
<path d="M40.0362 66.2452C27.666 66.2452 17.3544 55.0402 15.2841 40.3406C14.8785 37.4611 17.167 34.9026 20.0749 34.9026C22.4705 34.9026 24.5176 36.6596 24.8456 39.0329C26.2255 49.0211 32.5123 56.5867 40.0362 56.5867C47.5602 56.5867 53.8474 49.0211 55.2272 39.0329C55.5551 36.6598 57.6021 34.9026 59.9979 34.9026C62.9057 34.9026 65.1943 37.4611 64.7887 40.3406C62.7184 55.0402 52.4068 66.2452 40.0362 66.2452Z" fill="url(#paint0_linear_1_688)"/>
<path d="M40.0352 60.6579C40.0352 63.9443 36.8218 66.2519 33.6969 65.235C24.274 62.1687 16.9879 52.4329 15.2854 40.3362C14.8749 37.4548 17.1607 34.8953 20.0744 34.8953C21.2655 34.8953 22.3763 35.3379 23.2295 36.0703C24.0827 36.8109 24.6782 37.8411 24.8392 39.0323C26.0139 47.5076 30.7177 54.2387 36.7132 56.0836C38.705 56.6965 40.0352 58.574 40.0352 60.6579Z" fill="#FFBA00"/>
<defs>
<linearGradient id="paint0_linear_1_688" x1="15.2374" y1="50.5739" x2="64.8355" y2="50.5739" gradientUnits="userSpaceOnUse">
<stop offset="0.304" stop-color="#0068FF"/>
<stop offset="0.381" stop-color="#3367CB"/>
<stop offset="0.4705" stop-color="#696795"/>
<stop offset="0.5613" stop-color="#976767"/>
<stop offset="0.6514" stop-color="#BC6742"/>
<stop offset="0.7408" stop-color="#D96725"/>
<stop offset="0.8291" stop-color="#EE6710"/>
<stop offset="0.9161" stop-color="#FA6704"/>
<stop offset="1" stop-color="#FF6700"/>
</linearGradient>
</defs>
</svg>
