<svg width="40" height="40" viewBox="0 0 40 40" fill="none" xmlns="http://www.w3.org/2000/svg">
<rect width="40" height="40" rx="5" fill="#E0E0E0"/>
<path d="M29.3744 13.7477L31.0337 16.8727L34.5827 17.304L31.9785 19.6508L32.4994 23.1227L29.3744 21.1696L26.2494 23.1227L26.7702 19.6508L24.166 17.304L27.8119 16.8727L29.3744 13.7477ZM26.2494 34.581H24.166V29.3727C24.1644 27.9919 23.6151 26.6681 22.6387 25.6917C21.6623 24.7153 20.3385 24.166 18.9577 24.1644H12.7077C11.3269 24.166 10.0031 24.7153 9.02666 25.6917C8.05027 26.6681 7.501 27.9919 7.49935 29.3727V34.581H5.41602V29.3727C5.41877 27.4397 6.18788 25.5866 7.55474 24.2198C8.9216 22.8529 10.7747 22.0838 12.7077 22.081H18.9577C20.8907 22.0838 22.7438 22.8529 24.1106 24.2198C25.4775 25.5866 26.2466 27.4397 26.2494 29.3727V34.581ZM15.8327 7.4977C16.8628 7.4977 17.8698 7.80316 18.7263 8.37546C19.5828 8.94776 20.2504 9.76119 20.6446 10.7129C21.0388 11.6646 21.1419 12.7118 20.9409 13.7221C20.74 14.7324 20.2439 15.6605 19.5155 16.3889C18.7871 17.1173 17.8591 17.6133 16.8488 17.8143C15.8385 18.0153 14.7912 17.9121 13.8395 17.5179C12.8878 17.1237 12.0744 16.4561 11.5021 15.5996C10.9298 14.7431 10.6244 13.7361 10.6244 12.706C10.6244 11.3247 11.1731 9.99994 12.1498 9.02319C13.1266 8.04644 14.4513 7.4977 15.8327 7.4977ZM15.8327 5.41437C14.3905 5.41437 12.9808 5.84202 11.7817 6.64324C10.5825 7.44445 9.64795 8.58326 9.09606 9.91564C8.54417 11.248 8.39977 12.7141 8.68112 14.1286C8.96247 15.543 9.65694 16.8423 10.6767 17.862C11.6965 18.8818 12.9957 19.5762 14.4102 19.8576C15.8246 20.1389 17.2907 19.9945 18.6231 19.4427C19.9555 18.8908 21.0943 17.9562 21.8955 16.7571C22.6967 15.558 23.1244 14.1482 23.1244 12.706C23.1244 10.7722 22.3561 8.9175 20.9887 7.55005C19.6212 6.18259 17.7666 5.41437 15.8327 5.41437Z" fill="#929292"/>
</svg>
