<svg width="24" height="24" viewBox="0 0 24 24" fill="none" xmlns="http://www.w3.org/2000/svg">
<g clip-path="url(#clip0_56_2130)">
<path d="M22.5805 5.54661L18.6672 1.61327C18.4086 1.35598 18.0586 1.21155 17.6939 1.21155C17.3291 1.21155 16.9791 1.35598 16.7205 1.61327L2.84719 15.4666L1.58053 20.9333C1.53683 21.1331 1.53833 21.3402 1.58491 21.5394C1.63149 21.7386 1.72198 21.9248 1.84977 22.0845C1.97755 22.2443 2.13941 22.3734 2.32351 22.4626C2.50761 22.5518 2.70931 22.5987 2.91386 22.5999C3.00914 22.6102 3.10525 22.6102 3.20053 22.5999L8.72719 21.3333L22.5805 7.49327C22.8378 7.23468 22.9823 6.88473 22.9823 6.51994C22.9823 6.15515 22.8378 5.8052 22.5805 5.54661ZM8.06053 20.1333L2.88053 21.2199L4.06053 16.1399L14.4405 5.79994L18.4405 9.79994L8.06053 20.1333ZM19.3339 8.83327L15.3339 4.83327L17.6539 2.52661L21.5872 6.52661L19.3339 8.83327Z" fill="#929292"/>
</g>
<defs>
<clipPath id="clip0_56_2130">
<rect width="24" height="24" fill="white"/>
</clipPath>
</defs>
</svg>
