<svg width="40" height="40" viewBox="0 0 40 40" fill="none" xmlns="http://www.w3.org/2000/svg">
<g clip-path="url(#clip0_361_299)">
<path d="M36.122 30.9222C35.0506 29.967 34.1125 28.872 33.3331 27.6666C32.4814 26.0031 31.9714 24.1859 31.8331 22.3222V16.8333C31.8405 13.9062 30.7787 11.0771 28.8473 8.87769C26.9158 6.67825 24.2477 5.25979 21.3442 4.88883V3.4555C21.3442 3.0621 21.1879 2.68481 20.9098 2.40663C20.6316 2.12845 20.2543 1.97217 19.8609 1.97217C19.4675 1.97217 19.0902 2.12845 18.812 2.40663C18.5338 2.68481 18.3776 3.0621 18.3776 3.4555V4.91106C15.5001 5.30875 12.8642 6.73579 10.9581 8.92784C9.0521 11.1199 8.00504 13.9284 8.01089 16.8333V22.3222C7.87262 24.1859 7.3626 26.0031 6.51089 27.6666C5.74521 28.8692 4.82222 29.9641 3.76645 30.9222C3.64793 31.0263 3.55294 31.1545 3.4878 31.2981C3.42266 31.4418 3.38887 31.5977 3.38867 31.7555V33.2666C3.38867 33.5613 3.50573 33.8439 3.71411 34.0523C3.92248 34.2607 4.2051 34.3777 4.49978 34.3777H35.3887C35.6834 34.3777 35.966 34.2607 36.1743 34.0523C36.3827 33.8439 36.4998 33.5613 36.4998 33.2666V31.7555C36.4996 31.5977 36.4658 31.4418 36.4007 31.2981C36.3355 31.1545 36.2405 31.0263 36.122 30.9222ZM5.69978 32.1555C6.73333 31.1566 7.64352 30.0375 8.41089 28.8222C9.48399 26.8132 10.1094 24.5958 10.2442 22.3222V16.8333C10.2002 15.5311 10.4186 14.2334 10.8865 13.0174C11.3544 11.8013 12.0622 10.6919 12.9678 9.75517C13.8734 8.81841 14.9583 8.07346 16.1578 7.56469C17.3573 7.05592 18.6469 6.79373 19.9498 6.79373C21.2527 6.79373 22.5423 7.05592 23.7418 7.56469C24.9413 8.07346 26.0261 8.81841 26.9317 9.75517C27.8373 10.6919 28.5452 11.8013 29.0131 13.0174C29.481 14.2334 29.6994 15.5311 29.6553 16.8333V22.3222C29.7901 24.5958 30.4156 26.8132 31.4887 28.8222C32.256 30.0375 33.1662 31.1566 34.1998 32.1555H5.69978Z" fill="black"/>
<path d="M20.0002 38.089C20.7002 38.0729 21.3718 37.8097 21.8965 37.3461C22.4211 36.8825 22.7648 36.2483 22.8669 35.5557H17.0225C17.1274 36.2671 17.4873 36.9162 18.035 37.3822C18.5828 37.8482 19.2812 38.0994 20.0002 38.089Z" fill="black"/>
</g>
<defs>
<clipPath id="clip0_361_299">
<rect width="40" height="40" fill="white"/>
</clipPath>
</defs>
</svg>
