<svg width="115" height="100" viewBox="0 0 115 100" fill="none" xmlns="http://www.w3.org/2000/svg">
<circle cx="50" cy="50" r="50" fill="#0068FF"/>
<path d="M58.75 41.25H67.5M58.75 50H67.5M58.75 58.75H67.5M50 61.6667C49.1075 59.8788 47.2788 58.75 45.2808 58.75H37.2192C35.2213 58.75 33.3925 59.8788 32.5 61.6667M26.6667 29.5833H73.3333C74.1069 29.5833 74.8488 29.8906 75.3957 30.4376C75.9427 30.9846 76.25 31.7265 76.25 32.5V67.5C76.25 68.2735 75.9427 69.0154 75.3957 69.5624C74.8488 70.1094 74.1069 70.4167 73.3333 70.4167H26.6667C25.8931 70.4167 25.1513 70.1094 24.6043 69.5624C24.0573 69.0154 23.75 68.2735 23.75 67.5V32.5C23.75 31.7265 24.0573 30.9846 24.6043 30.4376C25.1513 29.8906 25.8931 29.5833 26.6667 29.5833ZM47.0833 44.1667C47.0833 45.7138 46.4688 47.1975 45.3748 48.2915C44.2808 49.3854 42.7971 50 41.25 50C39.7029 50 38.2192 49.3854 37.1252 48.2915C36.0312 47.1975 35.4167 45.7138 35.4167 44.1667C35.4167 42.6196 36.0312 41.1358 37.1252 40.0419C38.2192 38.9479 39.7029 38.3333 41.25 38.3333C42.7971 38.3333 44.2808 38.9479 45.3748 40.0419C46.4688 41.1358 47.0833 42.6196 47.0833 44.1667Z" stroke="white" stroke-width="2" stroke-linecap="round" stroke-linejoin="round"/>
<circle cx="100" cy="50" r="15" fill="#FF6700"/>
<path d="M97.9039 44.5V42.42H102.064V57H99.7639V44.5H97.9039Z" fill="white"/>
</svg>
