<svg width="58" height="58" viewBox="0 0 58 58" fill="none" xmlns="http://www.w3.org/2000/svg">
<path d="M28.9085 57.817C44.8742 57.817 57.817 44.8742 57.817 28.9085C57.817 12.9428 44.8742 0 28.9085 0C12.9428 0 0 12.9428 0 28.9085C0 44.8742 12.9428 57.817 28.9085 57.817Z" fill="#0068FF"/>
<path d="M17.2686 23.081C19.3748 23.081 21.0822 21.3736 21.0822 19.2674C21.0822 17.1612 19.3748 15.4539 17.2686 15.4539C15.1625 15.4539 13.4551 17.1612 13.4551 19.2674C13.4551 21.3736 15.1625 23.081 17.2686 23.081Z" fill="#FFBA00"/>
<path d="M40.5479 23.081C42.6541 23.081 44.3615 21.3736 44.3615 19.2674C44.3615 17.1612 42.6541 15.4539 40.5479 15.4539C38.4418 15.4539 36.7344 17.1612 36.7344 19.2674C36.7344 21.3736 38.4418 23.081 40.5479 23.081Z" fill="#FF6700"/>
<path d="M28.9081 47.8327C19.9761 47.8327 12.5305 39.7421 11.0357 29.1282C10.7428 27.0491 12.3953 25.2017 14.4949 25.2017C16.2247 25.2017 17.7028 26.4703 17.9396 28.184C18.936 35.396 23.4754 40.8588 28.9081 40.8588C34.3408 40.8588 38.8805 35.396 39.8768 28.184C40.1136 26.4704 41.5916 25.2017 43.3215 25.2017C45.4211 25.2017 47.0736 27.0491 46.7807 29.1282C45.2858 39.7421 37.8403 47.8327 28.9081 47.8327Z" fill="url(#paint0_linear_27_324)"/>
<path d="M28.9072 43.7986C28.9072 46.1715 26.587 47.8378 24.3306 47.1035C17.5267 44.8895 12.2658 37.8597 11.0365 29.1252C10.7401 27.0446 12.3906 25.1965 14.4944 25.1965C15.3545 25.1965 16.1565 25.5162 16.7725 26.045C17.3886 26.5797 17.8186 27.3236 17.9349 28.1837C18.7831 34.3033 22.1794 39.1635 26.5085 40.4957C27.9467 40.9382 28.9072 42.2938 28.9072 43.7986Z" fill="#FFBA00"/>
<defs>
<linearGradient id="paint0_linear_27_324" x1="11.002" y1="36.5172" x2="46.8145" y2="36.5172" gradientUnits="userSpaceOnUse">
<stop offset="0.304" stop-color="#0068FF"/>
<stop offset="0.381" stop-color="#3367CB"/>
<stop offset="0.4705" stop-color="#696795"/>
<stop offset="0.5613" stop-color="#976767"/>
<stop offset="0.6514" stop-color="#BC6742"/>
<stop offset="0.7408" stop-color="#D96725"/>
<stop offset="0.8291" stop-color="#EE6710"/>
<stop offset="0.9161" stop-color="#FA6704"/>
<stop offset="1" stop-color="#FF6700"/>
</linearGradient>
</defs>
</svg>
