<svg width="60" height="60" viewBox="0 0 60 60" fill="none" xmlns="http://www.w3.org/2000/svg">
<rect width="60" height="60" rx="5" fill="#E0E0E0"/>
<path fill-rule="evenodd" clip-rule="evenodd" d="M30 11.1188L50.3125 19.5844V34.6875H47.1875V23.1532L45.625 23.9344V42.0563L44.5687 42.4156L44.5594 42.4188L44.5375 42.425L44.4562 42.4563L44.15 42.5563C42.5411 43.0831 40.9187 43.5676 39.2844 44.0094C36.3844 44.7906 32.6906 45.625 30.0031 45.625C27.3156 45.625 23.6156 44.7875 20.7188 44.0094C18.9796 43.5389 17.2539 43.0199 15.5438 42.4531L15.4625 42.425L15.4406 42.4188H15.4375L15.9375 40.9375L15.4375 42.4156L14.375 42.0532V23.9375L7.5 20.5L30 11.1188ZM17.5 25.5V39.8094C18.8344 40.2363 20.1785 40.6323 21.5312 40.9969C24.4344 41.7782 27.7687 42.5032 30 42.5032C32.2312 42.5032 35.5656 41.7782 38.4688 40.9938C39.8212 40.6281 41.1653 40.2322 42.5 39.8063V25.5L30 31.75L17.5 25.5Z" fill="#929292"/>
</svg>
