<svg width="34" height="34" viewBox="0 0 34 34" fill="none" xmlns="http://www.w3.org/2000/svg">
<path d="M16.9999 28.9001L16.4559 28.2881C16.1159 27.9481 8.15991 18.5641 8.15991 12.9201C8.15991 8.02408 12.1039 4.08008 16.9999 4.08008C21.8959 4.08008 25.8399 8.02408 25.8399 12.9201C25.8399 18.5641 17.8839 27.9481 17.5439 28.3561L16.9999 28.9001ZM16.9999 5.44008C12.8519 5.44008 9.51991 8.77208 9.51991 12.9201C9.51991 17.2721 15.2319 24.6161 16.9999 26.7921C18.7679 24.6161 24.4799 17.2721 24.4799 12.9201C24.4799 8.77208 21.1479 5.44008 16.9999 5.44008Z" fill="#B6B6B6"/>
<path d="M17.0001 16.32C15.0961 16.32 13.6001 14.824 13.6001 12.92C13.6001 11.016 15.0961 9.52002 17.0001 9.52002C18.9041 9.52002 20.4001 11.016 20.4001 12.92C20.4001 14.824 18.9041 16.32 17.0001 16.32ZM17.0001 10.88C15.8441 10.88 14.9601 11.764 14.9601 12.92C14.9601 14.076 15.8441 14.96 17.0001 14.96C18.1561 14.96 19.0401 14.076 19.0401 12.92C19.0401 11.764 18.1561 10.88 17.0001 10.88Z" fill="#B6B6B6"/>
</svg>
