<svg width="34" height="32" viewBox="0 0 34 32" fill="none" xmlns="http://www.w3.org/2000/svg">
<path d="M28.6668 6.83329H23.6668V5.16663C23.6668 3.84054 23.14 2.56877 22.2024 1.63109C21.2647 0.69341 19.9929 0.166626 18.6668 0.166626H15.3335C14.0074 0.166626 12.7356 0.69341 11.798 1.63109C10.8603 2.56877 10.3335 3.84054 10.3335 5.16663V6.83329H5.3335C4.00741 6.83329 2.73564 7.36008 1.79796 8.29776C0.86028 9.23544 0.333496 10.5072 0.333496 11.8333V26.8333C0.333496 28.1594 0.86028 29.4311 1.79796 30.3688C2.73564 31.3065 4.00741 31.8333 5.3335 31.8333H28.6668C29.9929 31.8333 31.2647 31.3065 32.2024 30.3688C33.14 29.4311 33.6668 28.1594 33.6668 26.8333V11.8333C33.6668 10.5072 33.14 9.23544 32.2024 8.29776C31.2647 7.36008 29.9929 6.83329 28.6668 6.83329ZM13.6668 5.16663C13.6668 4.7246 13.8424 4.30068 14.155 3.98811C14.4675 3.67555 14.8915 3.49996 15.3335 3.49996H18.6668C19.1089 3.49996 19.5328 3.67555 19.8453 3.98811C20.1579 4.30068 20.3335 4.7246 20.3335 5.16663V6.83329H13.6668V5.16663ZM30.3335 26.8333C30.3335 27.2753 30.1579 27.6992 29.8453 28.0118C29.5328 28.3244 29.1089 28.5 28.6668 28.5H5.3335C4.89147 28.5 4.46755 28.3244 4.15498 28.0118C3.84242 27.6992 3.66683 27.2753 3.66683 26.8333V18.4166H8.66683V20.1666C8.66683 20.6087 8.84242 21.0326 9.15498 21.3451C9.46755 21.6577 9.89147 21.8333 10.3335 21.8333C10.7755 21.8333 11.1994 21.6577 11.512 21.3451C11.8246 21.0326 12.0002 20.6087 12.0002 20.1666V18.4166H22.0002V20.1666C22.0002 20.6087 22.1758 21.0326 22.4883 21.3451C22.8009 21.6577 23.2248 21.8333 23.6668 21.8333C24.1089 21.8333 24.5328 21.6577 24.8453 21.3451C25.1579 21.0326 25.3335 20.6087 25.3335 20.1666V18.4166H30.3335V26.8333ZM30.3335 15.1666H3.66683V11.8333C3.66683 11.3913 3.84242 10.9673 4.15498 10.6548C4.46755 10.3422 4.89147 10.1666 5.3335 10.1666H28.6668C29.1089 10.1666 29.5328 10.3422 29.8453 10.6548C30.1579 10.9673 30.3335 11.3913 30.3335 11.8333V15.1666Z" fill="#B6B6B6"/>
</svg>
