<svg width="24" height="24" viewBox="0 0 24 24" fill="none" xmlns="http://www.w3.org/2000/svg">
<path d="M13.761 12.01L3.001 10.926L3 4.07396C3.00013 3.89099 3.04701 3.71108 3.13618 3.5513C3.22536 3.39153 3.35388 3.25719 3.50955 3.16102C3.66521 3.06486 3.84287 3.01006 4.02566 3.00182C4.20845 2.99359 4.39031 3.03219 4.554 3.11396L20.406 11.04C20.5841 11.1293 20.7338 11.2664 20.8384 11.4359C20.9431 11.6054 20.9985 11.8007 20.9985 12C20.9985 12.1992 20.9431 12.3945 20.8384 12.564C20.7338 12.7335 20.5841 12.8706 20.406 12.96L4.556 20.886C4.39232 20.9677 4.21045 21.0063 4.02766 20.9981C3.84487 20.9899 3.66721 20.9351 3.51155 20.8389C3.35588 20.7427 3.22736 20.6084 3.13818 20.4486C3.04901 20.2888 3.00213 20.1089 3.002 19.926V13.074L13.761 12.01Z" fill="#14140F"/>
</svg>
