<svg width="95" height="95" viewBox="0 0 95 95" fill="none" xmlns="http://www.w3.org/2000/svg">
<rect width="95" height="95" rx="10" fill="#E0E0E0"/>
<path d="M55.2917 45.0833C55.9333 45.0833 56.4583 45.4917 56.6625 46.0458C55.0477 47.3923 53.7188 49.0485 52.7542 50.9167H39.25V46.5417C39.25 45.725 39.8917 45.0833 40.7083 45.0833H55.2917ZM74.25 39.25H21.75V21.75H74.25V39.25ZM68.4167 27.5833H27.5833V33.4167H68.4167V27.5833ZM30.5 68.4167V42.1667H24.6667V74.25H57.3042C56.1083 72.5 54.8833 70.5167 53.8333 68.4167H30.5ZM77.1667 58.2083C77.1667 65.7917 66.9583 77.1667 66.9583 77.1667C66.9583 77.1667 56.75 65.7917 56.75 58.2083C56.75 52.6667 61.4167 48 66.9583 48C72.5 48 77.1667 52.6667 77.1667 58.2083ZM70.4583 58.5C70.4583 56.75 68.7083 55 66.9583 55C65.2083 55 63.4583 56.4583 63.4583 58.5C63.4583 60.25 64.9167 62 66.9583 62C69 62 70.75 60.25 70.4583 58.5Z" fill="#B6B6B6"/>
</svg>
