<svg width="40" height="40" viewBox="0 0 40 40" fill="none" xmlns="http://www.w3.org/2000/svg">
<path d="M10 10.8333C6.93167 13.5799 5 17.2233 5 21.6666C5 23.6364 5.38799 25.587 6.14181 27.4068C6.89563 29.2267 8.00052 30.8803 9.3934 32.2732C10.7863 33.6661 12.4399 34.771 14.2597 35.5248C16.0796 36.2786 18.0302 36.6666 20 36.6666C21.9698 36.6666 23.9204 36.2786 25.7403 35.5248C27.5601 34.771 29.2137 33.6661 30.6066 32.2732C31.9995 30.8803 33.1044 29.2267 33.8582 27.4068C34.612 25.587 35 23.6364 35 21.6666C35 17.2233 33.0683 13.5799 30 10.8333M20 3.33325V18.3333M20 3.33325C18.8333 3.33325 16.6533 6.65659 15.8333 7.49992M20 3.33325C21.1667 3.33325 23.3467 6.65659 24.1667 7.49992" stroke="black" stroke-width="1.5" stroke-linecap="round" stroke-linejoin="round"/>
</svg>
