<svg width="40" height="40" viewBox="0 0 40 40" fill="none" xmlns="http://www.w3.org/2000/svg">
<path d="M32.0491 25.4333L27.8158 24.9499C27.318 24.8915 26.8134 24.9466 26.34 25.1111C25.8666 25.2757 25.4366 25.5454 25.0824 25.8999L22.0158 28.9666C17.2847 26.5598 13.4392 22.7143 11.0324 17.9833L14.1158 14.8999C14.8324 14.1833 15.1824 13.1833 15.0658 12.1666L14.5824 7.96661C14.4883 7.15342 14.0982 6.40331 13.4865 5.85926C12.8749 5.31521 12.0844 5.01527 11.2658 5.01661H8.38243C6.49909 5.01661 4.93242 6.58327 5.04909 8.46661C5.93242 22.6999 17.3158 34.0666 31.5324 34.9499C33.4158 35.0666 34.9824 33.4999 34.9824 31.6166V28.7333C34.9991 27.0499 33.7324 25.6333 32.0491 25.4333Z" fill="#5E5E5E"/>
</svg>
