<svg width="24" height="23" viewBox="0 0 24 23" fill="none" xmlns="http://www.w3.org/2000/svg">
<path d="M15.8333 13.7221H15.0433L14.7633 13.4671C15.7773 12.3565 16.3345 10.9386 16.3333 9.47214C16.3333 8.25798 15.9521 7.07109 15.2379 6.06156C14.5237 5.05202 13.5085 4.26519 12.3208 3.80055C11.1331 3.33591 9.82614 3.21434 8.56526 3.45121C7.30438 3.68808 6.14619 4.27275 5.23715 5.13129C4.32811 5.98983 3.70905 7.08368 3.45824 8.2745C3.20744 9.46533 3.33616 10.6997 3.82813 11.8214C4.3201 12.9431 5.15322 13.9019 6.22214 14.5764C7.29106 15.251 8.54777 15.611 9.83335 15.611C11.4433 15.611 12.9233 15.0538 14.0633 14.1283L14.3333 14.3927V15.1388L19.3333 19.8516L20.8233 18.4444L15.8333 13.7221ZM9.83335 13.7221C7.34335 13.7221 5.33335 11.8238 5.33335 9.47214C5.33335 7.12048 7.34335 5.22214 9.83335 5.22214C12.3233 5.22214 14.3333 7.12048 14.3333 9.47214C14.3333 11.8238 12.3233 13.7221 9.83335 13.7221Z" fill="#B6B6B6"/>
</svg>
