<svg width="34" height="33" viewBox="0 0 34 33" fill="none" xmlns="http://www.w3.org/2000/svg">
<path d="M22.4305 19.4398H21.3113L20.9147 19.0785C22.3511 17.5052 23.1405 15.4964 23.1388 13.4189C23.1388 11.6989 22.5988 10.0174 21.587 8.58727C20.5751 7.1571 19.137 6.04241 17.4544 5.38417C15.7718 4.72594 13.9203 4.55371 12.134 4.88928C10.3478 5.22484 8.70704 6.05313 7.41923 7.26939C6.13142 8.48566 5.25441 10.0353 4.89911 11.7223C4.5438 13.4093 4.72616 15.1579 5.42311 16.747C6.12007 18.3362 7.30033 19.6944 8.81463 20.65C10.3289 21.6056 12.1093 22.1157 13.9305 22.1157C16.2113 22.1157 18.308 21.3263 19.923 20.0151L20.3055 20.3897V21.4467L27.3888 28.1231L29.4997 26.1296L22.4305 19.4398ZM13.9305 19.4398C10.403 19.4398 7.55551 16.7505 7.55551 13.4189C7.55551 10.0874 10.403 7.3981 13.9305 7.3981C17.458 7.3981 20.3055 10.0874 20.3055 13.4189C20.3055 16.7505 17.458 19.4398 13.9305 19.4398Z" fill="#B6B6B6"/>
</svg>
