<svg width="64" height="65" viewBox="0 0 64 65" fill="none" xmlns="http://www.w3.org/2000/svg">
<g filter="url(#filter0_d_1_726)">
<circle cx="32" cy="32.0732" r="25" fill="#FFBA00"/>
</g>
<path d="M31.899 27.2408C29.2849 27.2408 27.1516 29.3741 27.1516 31.9882C27.1516 34.6024 29.2849 36.7357 31.899 36.7357C34.513 36.7357 36.6463 34.6024 36.6463 31.9882C36.6463 29.3741 34.513 27.2408 31.899 27.2408ZM46.1375 31.9882C46.1375 30.0223 46.1553 28.0742 46.0449 26.1118C45.9345 23.8325 45.4145 21.8095 43.7478 20.1428C42.0775 18.4724 40.0581 17.956 37.7788 17.8456C35.8129 17.7352 33.8649 17.753 31.9025 17.753C29.9366 17.753 27.9885 17.7352 26.0262 17.8456C23.7469 17.956 21.724 18.476 20.0573 20.1428C18.387 21.8131 17.8706 23.8325 17.7602 26.1118C17.6498 28.0777 17.6676 30.0259 17.6676 31.9882C17.6676 33.9506 17.6498 35.9023 17.7602 37.8647C17.8706 40.144 18.3905 42.1669 20.0573 43.8337C21.7276 45.504 23.7469 46.0204 26.0262 46.1308C27.9921 46.2413 29.9402 46.2234 31.9025 46.2234C33.8684 46.2234 35.8165 46.2413 37.7788 46.1308C40.0581 46.0204 42.081 45.5005 43.7478 43.8337C45.4181 42.1634 45.9345 40.144 46.0449 37.8647C46.1588 35.9023 46.1375 33.9542 46.1375 31.9882ZM31.899 39.2928C27.8568 39.2928 24.5945 36.0305 24.5945 31.9882C24.5945 27.946 27.8568 24.6836 31.899 24.6836C35.9412 24.6836 39.2034 27.946 39.2034 31.9882C39.2034 36.0305 35.9412 39.2928 31.899 39.2928ZM39.5026 26.0904C38.5588 26.0904 37.7966 25.3283 37.7966 24.3845C37.7966 23.4407 38.5588 22.6785 39.5026 22.6785C40.4463 22.6785 41.2085 23.4407 41.2085 24.3845C41.2088 24.6086 41.1648 24.8305 41.0792 25.0376C40.9936 25.2448 40.8679 25.4329 40.7095 25.5914C40.551 25.7499 40.3628 25.8755 40.1557 25.9611C39.9486 26.0468 39.7267 26.0907 39.5026 26.0904Z" fill="white"/>
<defs>
<filter id="filter0_d_1_726" x="0" y="0.0732422" width="64" height="64" filterUnits="userSpaceOnUse" color-interpolation-filters="sRGB">
<feFlood flood-opacity="0" result="BackgroundImageFix"/>
<feColorMatrix in="SourceAlpha" type="matrix" values="0 0 0 0 0 0 0 0 0 0 0 0 0 0 0 0 0 0 127 0" result="hardAlpha"/>
<feMorphology radius="1" operator="dilate" in="SourceAlpha" result="effect1_dropShadow_1_726"/>
<feOffset/>
<feGaussianBlur stdDeviation="3"/>
<feComposite in2="hardAlpha" operator="out"/>
<feColorMatrix type="matrix" values="0 0 0 0 0 0 0 0 0 0 0 0 0 0 0 0 0 0 0.15 0"/>
<feBlend mode="normal" in2="BackgroundImageFix" result="effect1_dropShadow_1_726"/>
<feBlend mode="normal" in="SourceGraphic" in2="effect1_dropShadow_1_726" result="shape"/>
</filter>
</defs>
</svg>
