<svg width="40" height="40" viewBox="0 0 40 40" fill="none" xmlns="http://www.w3.org/2000/svg">
<path d="M34.396 23.5601L34.231 21.9018L34.1761 21.9068L34.1227 21.9168L34.396 23.5601ZM34.396 23.5601L34.5627 25.2184L34.6177 25.2134L34.671 25.2051L34.396 23.5601ZM27.6627 32.6968L28.7177 31.4068L28.7044 31.3968L27.6627 32.6968ZM27.6627 32.6968L26.6077 33.9868L26.621 33.9984L27.6627 32.6968ZM12.336 32.6968L11.281 31.4084L11.2544 31.4301L11.2294 31.4518L12.336 32.6968ZM12.336 32.6968L13.391 33.9884L13.4177 33.9668L13.4427 33.9434L12.336 32.6968ZM5.60105 16.4401V14.7734H5.51772L5.43605 14.7818L5.60105 16.4401ZM5.60105 16.4401V18.1068H5.68438L5.76772 18.0984L5.60105 16.4401ZM25.2177 5.43512C25.1902 5.11454 25.1508 4.79493 25.1027 4.47678C25.0513 4.12654 24.9444 3.78673 24.786 3.47012L21.8244 5.00012C21.786 4.92512 21.7944 4.89845 21.816 5.03012C21.841 5.17845 21.8627 5.38512 21.901 5.76845L25.2177 5.43512ZM25.376 7.01845C25.481 7.15512 25.446 7.21678 25.3877 6.89178C25.3327 6.58178 25.2894 6.14678 25.2177 5.43512L21.8994 5.76678C21.966 6.42345 22.0227 7.01345 22.1077 7.48345C22.1894 7.93345 22.3327 8.52512 22.7244 9.03845L25.376 7.01845ZM25.376 7.01845L22.7244 9.03845C23.0811 9.50653 23.5553 9.87183 24.0989 10.0972C24.6425 10.3226 25.2361 10.4001 25.8194 10.3218L25.376 7.01845ZM26.606 6.01012C26.2325 6.3258 25.8484 6.62876 25.4544 6.91845C25.1827 7.10678 25.2044 7.04012 25.376 7.01845L25.8194 10.3218C26.4594 10.2351 26.9794 9.91845 27.356 9.65512C27.7477 9.38512 28.206 9.00845 28.716 8.59012L26.606 6.01012ZM28.2994 4.92678C27.9639 5.03839 27.6483 5.20266 27.3644 5.41345C27.1311 5.58012 26.8694 5.79512 26.606 6.01012L28.716 8.59012C29.0144 8.34678 29.1761 8.21512 29.2994 8.12845C29.4077 8.05012 29.3927 8.07678 29.3144 8.10178L28.2994 4.92678ZM30.6394 5.04345C29.8992 4.72269 29.0678 4.68124 28.2994 4.92678L29.3144 8.10178L30.6394 5.04345ZM32.216 6.29012C31.9916 6.05938 31.7598 5.83593 31.521 5.62012C31.2591 5.38222 30.9609 5.18757 30.6377 5.04345L29.3144 8.10178C29.2377 8.06845 29.2261 8.04178 29.3261 8.13012C29.4394 8.23011 29.5877 8.37512 29.8594 8.64678L32.216 6.29012ZM33.7061 7.78012L32.216 6.29012L29.8594 8.64678L31.3494 10.1368L33.7061 7.78012ZM34.9527 9.35678C34.8086 9.03359 34.6139 8.73542 34.376 8.47345C34.1602 8.23522 33.9368 8.00399 33.7061 7.78012L31.3494 10.1384C31.621 10.4101 31.7661 10.5584 31.8661 10.6718C31.9544 10.7718 31.9277 10.7601 31.8944 10.6834L34.9527 9.35678ZM35.0694 11.6968C35.3149 10.9284 35.2735 10.097 34.9527 9.35678L31.8944 10.6834L35.0694 11.6968ZM33.986 13.3901C34.193 13.1438 34.392 12.8909 34.5827 12.6318C34.7594 12.3851 34.9494 12.0784 35.0694 11.6968L31.8944 10.6834C31.9194 10.6051 31.9444 10.5884 31.8677 10.6984C31.781 10.8201 31.6511 10.9818 31.406 11.2801L33.986 13.3901ZM32.9777 14.6218C32.9561 14.7934 32.8894 14.8134 33.0777 14.5418C33.2561 14.2834 33.5327 13.9434 33.986 13.3901L31.406 11.2801C30.9894 11.7901 30.6111 12.2484 30.3394 12.6401C30.0777 13.0168 29.7611 13.5368 29.6744 14.1768L32.9777 14.6218ZM32.9777 14.6218L29.6744 14.1768C29.596 14.76 29.6735 15.3536 29.8989 15.8972C30.1243 16.4409 30.4896 16.9151 30.9577 17.2718L32.9777 14.6218ZM34.5611 14.7801C34.0737 14.7393 33.5879 14.6821 33.1044 14.6084C32.7794 14.5501 32.8411 14.5168 32.9777 14.6218L30.9577 17.2718C31.4711 17.6634 32.0611 17.8068 32.5144 17.8884C32.9827 17.9718 33.5727 18.0301 34.2294 18.0968L34.5611 14.7801ZM36.5261 15.2101C36.2094 15.0518 35.8696 14.9449 35.5194 14.8934C35.2012 14.8454 34.8816 14.8076 34.5611 14.7801L34.2294 18.0968C34.4761 18.1185 34.7223 18.1462 34.9677 18.1801C35.1011 18.2034 35.0727 18.2118 34.9977 18.1734L36.5261 15.2101ZM38.0977 16.9484C37.8015 16.1979 37.2431 15.5802 36.5261 15.2101L34.9994 18.1768L38.0977 16.9484ZM38.3311 18.9451C38.3311 18.6051 38.3311 18.2668 38.3127 17.9801C38.2958 17.6263 38.2227 17.2775 38.0961 16.9468L34.9994 18.1768C34.9694 18.0984 34.9794 18.0718 34.9894 18.2051C34.9994 18.3551 34.9994 18.5634 34.9994 18.9484L38.3311 18.9451ZM38.3311 21.0518V18.9451H34.9977V21.0518H38.3311ZM38.0977 23.0484C38.2444 22.6768 38.2927 22.3201 38.3127 22.0151C38.3311 21.7301 38.3311 21.3918 38.3311 21.0518H34.9977C34.9977 21.4368 34.9977 21.6451 34.9877 21.7951C34.9777 21.9284 34.9677 21.9018 34.9977 21.8234L38.0977 23.0484ZM36.5261 24.7868C37.2431 24.4167 37.8015 23.799 38.0977 23.0484L34.9994 21.8251L36.5261 24.7868ZM34.5611 25.2168C34.9011 25.1834 35.236 25.1501 35.5194 25.1034C35.8194 25.0534 36.1694 24.9701 36.5261 24.7868L34.9994 21.8251C35.0727 21.7868 35.1011 21.7951 34.9694 21.8168C34.7241 21.852 34.4779 21.8803 34.231 21.9018L34.5611 25.2168ZM32.9794 25.3751C32.841 25.4801 32.7794 25.4468 33.1044 25.3884C33.4144 25.3334 33.8494 25.2884 34.5611 25.2168L34.2294 21.9001C33.5744 21.9668 32.9827 22.0234 32.5144 22.1084C32.0627 22.1901 31.4711 22.3334 30.9577 22.7251L32.9794 25.3751ZM32.9794 25.3751L30.9577 22.7251C30.4896 23.0818 30.1243 23.556 29.8989 24.0997C29.6735 24.6433 29.596 25.2369 29.6744 25.8201L32.9794 25.3751ZM33.986 26.6051C33.6704 26.2321 33.3674 25.8486 33.0777 25.4551C32.8894 25.1834 32.9577 25.2034 32.9794 25.3751L29.6744 25.8201C29.7611 26.4601 30.0777 26.9801 30.341 27.3568C30.6127 27.7484 30.9894 28.2068 31.406 28.7168L33.986 26.6051ZM35.0694 28.2984C34.9576 27.9635 34.7933 27.6485 34.5827 27.3651C34.416 27.1301 34.201 26.8701 33.986 26.6051L31.406 28.7168C31.6494 29.0151 31.781 29.1751 31.8677 29.2985C31.9461 29.4068 31.921 29.3934 31.8944 29.3151L35.0694 28.2984ZM34.9527 30.6401C35.2739 29.8994 35.3153 29.0674 35.0694 28.2984L31.8944 29.3151L34.9527 30.6401ZM33.7061 32.2168C33.9477 31.9751 34.1861 31.7384 34.376 31.5218C34.576 31.2918 34.7927 31.0068 34.9527 30.6384L31.8944 29.3134C31.9277 29.2368 31.9544 29.2268 31.8661 29.3268C31.7661 29.4401 31.621 29.5868 31.3494 29.8601L33.7061 32.2168ZM32.216 33.7051L33.7061 32.2168L31.3494 29.8601L29.8594 31.3484L32.216 33.7051ZM30.6394 34.9534C30.9627 34.8088 31.2609 34.6136 31.5227 34.3751C31.7377 34.1868 31.976 33.9468 32.216 33.7051L29.8594 31.3484C29.6864 31.5256 29.5086 31.6979 29.3261 31.8651C29.2261 31.9551 29.2377 31.9284 29.3144 31.8951L30.6394 34.9534ZM28.2994 35.0701C29.0678 35.3157 29.8992 35.2742 30.6394 34.9534L29.3144 31.8951L28.2994 35.0701ZM26.606 33.9868C26.8694 34.2018 27.1294 34.4168 27.3644 34.5835C27.611 34.7584 27.9177 34.9484 28.2994 35.0701L29.3144 31.8951C29.3927 31.9201 29.4077 31.9451 29.2977 31.8685C29.0996 31.72 28.9056 31.566 28.716 31.4068L26.606 33.9868ZM25.376 32.9801C25.2044 32.9551 25.1827 32.8885 25.4544 33.0768C25.7127 33.2568 26.051 33.5318 26.6044 33.9851L28.716 31.4068C28.206 30.9884 27.7477 30.6118 27.356 30.3401C26.9794 30.0768 26.4594 29.7618 25.8194 29.6751L25.376 32.9801ZM25.376 32.9801L25.8194 29.6751C25.2361 29.5968 24.6425 29.6743 24.0989 29.8997C23.5553 30.1251 23.0811 30.4904 22.7244 30.9585L25.376 32.9801ZM25.216 34.5618C25.2877 33.8501 25.3327 33.4135 25.3877 33.1051C25.446 32.7801 25.4794 32.8401 25.3744 32.9785L22.7244 30.9568C22.3327 31.4701 22.1894 32.0618 22.1077 32.5134C22.0244 32.9834 21.9677 33.5734 21.901 34.2301L25.216 34.5618ZM24.7844 36.5268C24.9677 36.1701 25.051 35.8201 25.101 35.5201C25.151 35.2368 25.181 34.9018 25.216 34.5618L21.901 34.2301C21.8791 34.4775 21.8502 34.7226 21.8144 34.9684C21.7927 35.1018 21.7844 35.0734 21.8227 34.9985L24.7844 36.5268ZM23.0494 38.0984C23.7987 37.8016 24.4151 37.2432 24.7844 36.5268L21.8244 35.0001L23.0494 38.0984ZM21.0494 38.3318C21.391 38.3318 21.7294 38.3318 22.016 38.3134C22.3194 38.2934 22.676 38.2484 23.0494 38.0984L21.8244 35.0001C21.9027 34.9701 21.9294 34.9801 21.796 34.9901C21.5484 35.0004 21.3005 35.0037 21.0527 35.0001L21.0494 38.3318ZM18.9444 38.3318H21.0494L21.051 34.9985H18.9444V38.3318ZM16.9477 38.0984C17.3194 38.2451 17.676 38.2934 17.981 38.3134C18.266 38.3318 18.6044 38.3318 18.9444 38.3318V34.9985C18.5594 34.9985 18.351 34.9984 18.201 34.9884C18.0677 34.9785 18.0944 34.9684 18.1727 34.9985L16.9477 38.0984ZM15.2094 36.5268C15.5795 37.2438 16.1971 37.8022 16.9477 38.0984L18.1727 34.9985L15.2094 36.5268ZM14.7794 34.5618C14.8127 34.9018 14.846 35.2368 14.8927 35.5201C14.9427 35.8201 15.026 36.1701 15.2094 36.5268L18.176 35.0001C18.2144 35.0734 18.206 35.1018 18.1844 34.9701C18.1492 34.7248 18.1208 34.4786 18.0994 34.2318L14.7794 34.5618ZM14.621 32.9785C14.516 32.8418 14.5494 32.7785 14.6077 33.1051C14.6627 33.4135 14.7077 33.8501 14.7794 34.5618L18.096 34.2301C18.0294 33.5734 17.9727 32.9834 17.8877 32.5134C17.806 32.0634 17.6627 31.4718 17.271 30.9585L14.621 32.9785ZM14.621 32.9785L17.271 30.9585C16.9144 30.4904 16.4401 30.1251 15.8965 29.8997C15.3529 29.6743 14.7593 29.5968 14.176 29.6751L14.621 32.9785ZM13.3894 33.9868C13.9444 33.5334 14.2827 33.2568 14.541 33.0784C14.8127 32.8901 14.7927 32.9568 14.621 32.9785L14.176 29.6751C13.536 29.7618 13.016 30.0784 12.6394 30.3418C12.2477 30.6118 11.7894 30.9884 11.2794 31.4068L13.3894 33.9868ZM11.696 35.0701C12.0316 34.9585 12.3472 34.7942 12.631 34.5835C12.8644 34.4168 13.126 34.2018 13.3894 33.9868L11.281 31.4084C11.0909 31.5677 10.8981 31.7217 10.6994 31.8701C10.5911 31.9484 10.606 31.9235 10.6844 31.8968L11.696 35.0701ZM9.35605 34.9534C10.0962 35.2742 10.9276 35.3157 11.696 35.0701L10.681 31.8951L9.35605 34.9534ZM7.77772 33.7068C8.01938 33.9485 8.25772 34.1868 8.47438 34.3768C8.70272 34.5768 8.98772 34.7951 9.35772 34.9551L10.681 31.8951C10.7577 31.9284 10.7694 31.9551 10.6694 31.8668C10.4868 31.6995 10.309 31.5273 10.136 31.3501L7.77772 33.7068ZM6.28938 32.2168L7.77938 33.7068L10.136 31.3501L8.64605 29.8601L6.28938 32.2168ZM5.04272 30.6401C5.20105 31.0068 5.41938 31.2934 5.61938 31.5234C5.80938 31.7384 6.04772 31.9768 6.28938 32.2168L8.64605 29.8601C8.46891 29.6872 8.29662 29.5093 8.12938 29.3268C8.04105 29.2268 8.06772 29.2385 8.10105 29.3151L5.04272 30.6401ZM4.92605 28.3001C4.68051 29.0685 4.72196 29.8999 5.04272 30.6401L8.10105 29.3151L4.92605 28.3001ZM6.00938 26.6068C5.80241 26.8531 5.60342 27.106 5.41272 27.3651C5.20193 27.649 5.03766 27.9646 4.92605 28.3001L8.10105 29.3151C8.07438 29.3934 8.05105 29.4084 8.12772 29.2985C8.21438 29.1768 8.34438 29.0151 8.58938 28.7168L6.00938 26.6068ZM7.01605 25.3751C7.03938 25.2034 7.10605 25.1834 6.91772 25.4551C6.73938 25.7134 6.46272 26.0534 6.00938 26.6068L8.58938 28.7168C9.00605 28.2068 9.38438 27.7484 9.65605 27.3568C9.91772 26.9801 10.2344 26.4601 10.321 25.8201L7.01605 25.3751ZM7.01605 25.3751L10.321 25.8201C10.3994 25.2369 10.3219 24.6433 10.0965 24.0997C9.8711 23.556 9.50579 23.0818 9.03772 22.7251L7.01605 25.3751ZM5.43272 25.2168C6.14605 25.2884 6.58272 25.3334 6.89105 25.3884C7.21605 25.4468 7.15438 25.4801 7.01605 25.3751L9.03772 22.7251C8.52438 22.3334 7.93438 22.1901 7.48105 22.1084C7.01272 22.0251 6.42272 21.9668 5.76438 21.9001L5.43272 25.2168ZM3.46938 24.7868C3.82605 24.9701 4.17605 25.0534 4.47605 25.1034C4.75938 25.1501 5.09438 25.1851 5.43438 25.2184L5.76438 21.9001C5.51755 21.8792 5.27301 21.8514 5.02772 21.8168C4.89438 21.7934 4.92272 21.7851 4.99772 21.8234L3.46938 24.7868ZM1.89938 23.0501C2.1956 23.8007 2.75403 24.4183 3.47105 24.7884L4.99938 21.8251L1.89938 23.0501ZM1.66605 21.0534C1.66605 21.3934 1.66605 21.7318 1.68438 22.0184C1.70438 22.3218 1.75105 22.6784 1.90105 23.0518L4.99938 21.8234C5.02938 21.9018 5.01938 21.9284 5.01105 21.7951C5.00028 21.548 4.99639 21.3007 4.99938 21.0534H1.66605ZM1.66605 18.9468V21.0534H4.99938V18.9468H1.66605ZM1.89938 16.9484C1.77329 17.2793 1.70072 17.6281 1.68438 17.9818C1.66438 18.2684 1.66605 18.6068 1.66605 18.9484H4.99938C4.99938 18.5618 4.99938 18.3534 5.01105 18.2034C5.01938 18.0701 5.02938 18.0968 4.99938 18.1751L1.89938 16.9484ZM3.47105 15.2134C2.75463 15.5827 2.19628 16.1991 1.89938 16.9484L4.99938 18.1751L3.47105 15.2134ZM5.43605 14.7801C5.09605 14.8151 4.76105 14.8468 4.47772 14.8968C4.17772 14.9468 3.82772 15.0301 3.47105 15.2134L4.99938 18.1751C4.92438 18.2134 4.89772 18.2051 5.02938 18.1834C5.27466 18.1483 5.52086 18.1199 5.76772 18.0984L5.43605 14.7801ZM7.01938 14.6234C7.15772 14.5184 7.21938 14.5518 6.89272 14.6101C6.58438 14.6651 6.14772 14.7101 5.43605 14.7818L5.76772 18.0984C6.42272 18.0318 7.01438 17.9751 7.48438 17.8901C7.93605 17.8084 8.52772 17.6651 9.04105 17.2734L7.01938 14.6234ZM7.01938 14.6234L9.04105 17.2734C9.50882 16.9166 9.87381 16.4422 10.0989 15.8986C10.324 15.355 10.4012 14.7615 10.3227 14.1784L7.01938 14.6234ZM6.01105 13.3918C6.46438 13.9451 6.74105 14.2851 6.92105 14.5434C7.10938 14.8151 7.04272 14.7951 7.01938 14.6234L10.3227 14.1784C10.236 13.5384 9.92105 13.0201 9.65772 12.6418C9.38605 12.2501 9.00772 11.7918 8.59105 11.2818L6.01105 13.3918ZM4.92772 11.6968C5.04938 12.0801 5.23772 12.3851 5.41438 12.6334C5.58105 12.8668 5.79605 13.1284 6.01105 13.3918L8.59105 11.2818C8.43177 11.0917 8.27782 10.8988 8.12938 10.7001C8.05105 10.5918 8.07772 10.6051 8.10272 10.6834L4.92772 11.6968ZM5.04438 9.35845C4.72404 10.0981 4.68259 10.9289 4.92772 11.6968L8.10272 10.6834L5.04438 9.35845ZM6.29105 7.78012C6.04938 8.02178 5.81105 8.25845 5.62105 8.47512C5.38316 8.73708 5.1885 9.03526 5.04438 9.35845L8.10272 10.6834C8.06938 10.7601 8.04272 10.7718 8.13105 10.6701C8.23105 10.5568 8.37605 10.4101 8.64772 10.1368L6.29105 7.78012ZM7.78105 6.29178L6.29105 7.78012L8.64772 10.1368L10.1394 8.64845L7.78105 6.29178ZM9.35772 5.04345C9.03442 5.18807 8.73623 5.3833 8.47438 5.62178C8.23615 5.83763 8.00492 6.06108 7.78105 6.29178L10.1394 8.64845C10.411 8.37512 10.5577 8.23012 10.671 8.13178C10.771 8.04178 10.7594 8.06845 10.6827 8.10178L9.35772 5.04345ZM11.6977 4.92678C10.9293 4.68124 10.0979 4.72269 9.35772 5.04345L10.6827 8.10178L11.6977 4.92678ZM13.3894 6.01012C13.126 5.79512 12.8677 5.58178 12.6327 5.41512C12.3489 5.20374 12.0333 5.0389 11.6977 4.92678L10.6827 8.10178C10.6044 8.07678 10.5894 8.05178 10.6994 8.12845C10.821 8.21678 10.9827 8.34678 11.281 8.59178L13.3894 6.01012ZM14.6227 7.01845C14.7944 7.04178 14.8144 7.10845 14.5427 6.92012C14.1493 6.63039 13.7657 6.32744 13.3927 6.01178L11.281 8.59178C11.791 9.00845 12.2477 9.38512 12.6394 9.65845C13.016 9.92012 13.536 10.2351 14.176 10.3218L14.6227 7.01845ZM14.6227 7.01845L14.1777 10.3218C14.761 10.4001 15.3546 10.3226 15.8982 10.0972C16.4418 9.87183 16.916 9.50653 17.2727 9.03845L14.6227 7.01845ZM14.7811 5.43512C14.7094 6.14845 14.6644 6.58512 14.6094 6.89345C14.551 7.21845 14.5177 7.15678 14.6227 7.01845L17.2727 9.03845C17.6644 8.52512 17.8077 7.93511 17.8894 7.48345C17.9727 7.01512 18.0327 6.42345 18.0977 5.76678L14.7811 5.43512ZM15.211 3.47178C15.0527 3.78839 14.9458 4.12821 14.8944 4.47845C14.8477 4.76178 14.8144 5.09678 14.7811 5.43678L18.0977 5.76678C18.1194 5.52002 18.1472 5.2755 18.181 5.03012C18.2044 4.89678 18.2127 4.92678 18.1744 5.00012L15.211 3.47178ZM16.9494 1.90012C16.1988 2.19633 15.5812 2.75476 15.211 3.47178L18.1744 5.00012L16.9494 1.90012ZM18.946 1.66678C18.606 1.66678 18.2677 1.66678 17.981 1.68512C17.6274 1.70145 17.2786 1.77403 16.9477 1.90012L18.176 5.00012C18.0977 5.03012 18.071 5.02012 18.2044 5.01178C18.3544 5.00178 18.5627 5.00012 18.9477 5.00012L18.946 1.66678ZM21.0527 1.66678H18.946V5.00012H21.0527V1.66678ZM23.0494 1.90012C22.7185 1.77403 22.3697 1.70145 22.016 1.68512C21.7327 1.66512 21.3944 1.66678 21.0544 1.66678V5.00012C21.4394 5.00012 21.6477 5.00012 21.7977 5.01178C21.931 5.02012 21.9027 5.03012 21.8244 5.00012L23.0494 1.90012ZM24.7877 3.47178C24.4176 2.75476 23.8 2.19633 23.0494 1.90012L21.8244 5.00012L24.7877 3.47178ZM24.9994 20.0001C24.9994 21.3262 24.4726 22.598 23.5349 23.5356C22.5972 24.4733 21.3255 25.0001 19.9994 25.0001V28.3334C22.2095 28.3334 24.3291 27.4555 25.8919 25.8927C27.4547 24.3299 28.3327 22.2103 28.3327 20.0001H24.9994ZM19.9994 15.0001C21.3255 15.0001 22.5972 15.5269 23.5349 16.4646C24.4726 17.4023 24.9994 18.674 24.9994 20.0001H28.3327C28.3327 17.79 27.4547 15.6704 25.8919 14.1076C24.3291 12.5448 22.2095 11.6668 19.9994 11.6668V15.0001ZM14.9994 20.0001C14.9994 18.674 15.5262 17.4023 16.4638 16.4646C17.4015 15.5269 18.6733 15.0001 19.9994 15.0001V11.6668C17.7892 11.6668 15.6696 12.5448 14.1068 14.1076C12.544 15.6704 11.666 17.79 11.666 20.0001H14.9994ZM19.9994 25.0001C18.6733 25.0001 17.4015 24.4733 16.4638 23.5356C15.5262 22.598 14.9994 21.3262 14.9994 20.0001H11.666C11.666 22.2103 12.544 24.3299 14.1068 25.8927C15.6696 27.4555 17.7892 28.3334 19.9994 28.3334V25.0001Z" fill="black"/>
</svg>
