<svg width="64" height="65" viewBox="0 0 64 65" fill="none" xmlns="http://www.w3.org/2000/svg">
<g filter="url(#filter0_d_1_737)">
<circle cx="32" cy="32.0732" r="25" fill="#FFBA00"/>
</g>
<path d="M24.0938 21.1358C24.0933 21.9646 23.7637 22.7593 23.1774 23.3451C22.591 23.9308 21.796 24.2597 20.9672 24.2593C20.1384 24.2589 19.3437 23.9292 18.7579 23.3429C18.1722 22.7565 17.8433 21.9615 17.8438 21.1327C17.8442 20.3039 18.1738 19.5092 18.7601 18.9235C19.3465 18.3377 20.1415 18.0089 20.9703 18.0093C21.7991 18.0097 22.5938 18.3393 23.1796 18.9257C23.7653 19.512 24.0942 20.307 24.0938 21.1358ZM24.1875 26.5733H17.9375V46.1358H24.1875V26.5733ZM34.0625 26.5733H27.8438V46.1358H34V35.8702C34 30.1515 41.4531 29.6202 41.4531 35.8702V46.1358H47.625V33.7452C47.625 24.1046 36.5938 24.464 34 29.1983L34.0625 26.5733Z" fill="white"/>
<defs>
<filter id="filter0_d_1_737" x="0" y="0.0732422" width="64" height="64" filterUnits="userSpaceOnUse" color-interpolation-filters="sRGB">
<feFlood flood-opacity="0" result="BackgroundImageFix"/>
<feColorMatrix in="SourceAlpha" type="matrix" values="0 0 0 0 0 0 0 0 0 0 0 0 0 0 0 0 0 0 127 0" result="hardAlpha"/>
<feMorphology radius="1" operator="dilate" in="SourceAlpha" result="effect1_dropShadow_1_737"/>
<feOffset/>
<feGaussianBlur stdDeviation="3"/>
<feComposite in2="hardAlpha" operator="out"/>
<feColorMatrix type="matrix" values="0 0 0 0 0 0 0 0 0 0 0 0 0 0 0 0 0 0 0.15 0"/>
<feBlend mode="normal" in2="BackgroundImageFix" result="effect1_dropShadow_1_737"/>
<feBlend mode="normal" in="SourceGraphic" in2="effect1_dropShadow_1_737" result="shape"/>
</filter>
</defs>
</svg>
