<svg width="30" height="30" viewBox="0 0 30 30" fill="none" xmlns="http://www.w3.org/2000/svg">
<path fill-rule="evenodd" clip-rule="evenodd" d="M15 3.67114L27.1875 8.75052V17.8124H25.3125V10.8918L24.375 11.3605V22.2336L23.7412 22.4493L23.7356 22.4511L23.7225 22.4549L23.6737 22.4736L23.49 22.5336C22.5247 22.8497 21.5512 23.1405 20.5706 23.4055C18.8306 23.8743 16.6144 24.3749 15.0019 24.3749C13.3894 24.3749 11.1694 23.8724 9.43125 23.4055C8.38777 23.1232 7.35237 22.8118 6.32625 22.4718L6.2775 22.4549L6.26438 22.4511H6.2625L6.5625 21.5624L6.2625 22.4493L5.625 22.2318V11.3624L1.5 9.29989L15 3.67114ZM7.5 12.2999V20.8855C8.30063 21.1417 9.1071 21.3792 9.91875 21.598C11.6606 22.0668 13.6613 22.5018 15 22.5018C16.3387 22.5018 18.3394 22.0668 20.0812 21.5961C20.8927 21.3767 21.6992 21.1392 22.5 20.8836V12.2999L15 16.0499L7.5 12.2999Z" fill="black"/>
</svg>
