<svg width="40" height="40" viewBox="0 0 40 40" fill="none" xmlns="http://www.w3.org/2000/svg">
<path d="M19.9993 20C18.166 20 16.5966 19.3472 15.291 18.0416C13.9855 16.7361 13.3327 15.1666 13.3327 13.3333C13.3327 11.5 13.9855 9.93052 15.291 8.62496C16.5966 7.3194 18.166 6.66663 19.9993 6.66663C21.8327 6.66663 23.4021 7.3194 24.7077 8.62496C26.0132 9.93052 26.666 11.5 26.666 13.3333C26.666 15.1666 26.0132 16.7361 24.7077 18.0416C23.4021 19.3472 21.8327 20 19.9993 20ZM6.66602 33.3333V28.6666C6.66602 27.7222 6.90935 26.8544 7.39602 26.0633C7.88268 25.2722 8.52824 24.6677 9.33268 24.25C11.0549 23.3888 12.8049 22.7433 14.5827 22.3133C16.3605 21.8833 18.166 21.6677 19.9993 21.6666C21.8327 21.6655 23.6382 21.8811 25.416 22.3133C27.1938 22.7455 28.9438 23.3911 30.666 24.25C31.4716 24.6666 32.1177 25.2711 32.6043 26.0633C33.091 26.8555 33.3338 27.7233 33.3327 28.6666V33.3333H6.66602ZM9.99935 30H29.9993V28.6666C29.9993 28.3611 29.9232 28.0833 29.771 27.8333C29.6188 27.5833 29.4171 27.3888 29.166 27.25C27.666 26.5 26.1521 25.9377 24.6243 25.5633C23.0966 25.1888 21.5549 25.0011 19.9993 25C18.4438 24.9988 16.9021 25.1866 15.3743 25.5633C13.8466 25.94 12.3327 26.5022 10.8327 27.25C10.5827 27.3888 10.381 27.5833 10.2277 27.8333C10.0743 28.0833 9.99824 28.3611 9.99935 28.6666V30ZM19.9993 16.6666C20.916 16.6666 21.701 16.3405 22.3543 15.6883C23.0077 15.0361 23.3338 14.2511 23.3327 13.3333C23.3316 12.4155 23.0055 11.6311 22.3543 10.98C21.7032 10.3288 20.9182 10.0022 19.9993 9.99996C19.0805 9.99774 18.296 10.3244 17.646 10.98C16.996 11.6355 16.6693 12.42 16.666 13.3333C16.6627 14.2466 16.9893 15.0316 17.646 15.6883C18.3027 16.345 19.0871 16.6711 19.9993 16.6666Z" fill="#5E5E5E"/>
</svg>
