<svg width="20" height="20" viewBox="0 0 20 20" fill="none" xmlns="http://www.w3.org/2000/svg">
<path d="M4.6787 16.6666C4.30814 16.6666 3.9912 16.5346 3.72786 16.2708C3.46453 16.0069 3.33259 15.6905 3.33203 15.3216V4.67909C3.33203 4.30909 3.46398 3.99242 3.72786 3.72909C3.99175 3.46575 4.30842 3.33381 4.67786 3.33325H15.3195C15.6895 3.33325 16.0062 3.4652 16.2695 3.72909C16.5329 3.99297 16.6648 4.30964 16.6654 4.67909V15.3208C16.6654 15.6908 16.5334 16.0074 16.2695 16.2708C16.0056 16.5341 15.689 16.666 15.3195 16.6666H4.6787ZM4.6787 15.8333H15.3195C15.469 15.8333 15.5918 15.7852 15.6879 15.6891C15.784 15.593 15.832 15.4702 15.832 15.3208V5.83325H4.16536V15.3208C4.16536 15.4702 4.21342 15.593 4.30953 15.6891C4.40564 15.7852 4.5287 15.8333 4.6787 15.8333ZM9.9987 13.3333C9.09481 13.3333 8.28036 13.1016 7.55536 12.6383C6.83036 12.1755 6.28259 11.5738 5.91203 10.8333C6.28259 10.0927 6.83036 9.49103 7.55536 9.02825C8.28036 8.56492 9.09481 8.33325 9.9987 8.33325C10.9026 8.33325 11.717 8.56492 12.442 9.02825C13.167 9.49158 13.7148 10.0933 14.0854 10.8333C13.7148 11.5738 13.167 12.1755 12.442 12.6383C11.717 13.1016 10.9026 13.3333 9.9987 13.3333ZM9.9987 12.5958C10.6593 12.5958 11.2743 12.4413 11.8437 12.1324C12.4131 11.8235 12.8943 11.3905 13.287 10.8333C12.8943 10.2766 12.4131 9.84353 11.8437 9.53409C11.2743 9.22464 10.6593 9.0702 9.9987 9.07075C9.33814 9.07131 8.72314 9.22575 8.1537 9.53409C7.58425 9.84242 7.10342 10.2755 6.7112 10.8333C7.10398 11.3899 7.58509 11.823 8.15453 12.1324C8.72398 12.4419 9.33898 12.5966 9.99953 12.5966M10.0037 11.7633C10.2626 11.7633 10.4815 11.6724 10.6604 11.4908C10.8398 11.3091 10.9295 11.0888 10.9295 10.8299C10.9295 10.5705 10.8387 10.351 10.657 10.1716C10.4754 9.99325 10.2551 9.90409 9.9962 9.90409C9.73675 9.90409 9.51731 9.99464 9.33786 10.1758C9.15953 10.3574 9.07036 10.5777 9.07036 10.8366C9.07036 11.096 9.16092 11.3155 9.34203 11.4949C9.5237 11.6738 9.74481 11.7633 10.0037 11.7633Z" fill="#FF6700"/>
</svg>
