<svg width="40" height="40" viewBox="0 0 40 40" fill="none" xmlns="http://www.w3.org/2000/svg">
<path d="M16.6667 18.9749C15.2922 18.9749 14.115 18.4849 13.135 17.5049C12.155 16.5249 11.6656 15.3483 11.6667 13.9749C11.6678 12.6016 12.1572 11.4238 13.135 10.4416C14.1128 9.45939 15.29 8.97105 16.6667 8.97661C18.0433 8.98216 19.2206 9.47105 20.1983 10.4433C21.1761 11.4155 21.6656 12.5933 21.6667 13.9766C21.6678 15.3599 21.1783 16.5366 20.1983 17.5066C19.2183 18.4766 18.0411 18.9649 16.6667 18.9749ZM5 31.0266V28.2833C5 27.5166 5.19333 26.8533 5.58 26.2933C5.96667 25.7333 6.51278 25.2877 7.21833 24.9566C8.57056 24.2988 9.965 23.7572 11.4017 23.3316C12.8372 22.9072 14.5922 22.6949 16.6667 22.6949H17.0583C17.1606 22.6949 17.2844 22.7011 17.43 22.7133C17.3144 22.9999 17.2228 23.2805 17.155 23.5549L16.9617 24.3616H16.6667C14.8011 24.3616 13.1744 24.5527 11.7867 24.9349C10.3989 25.3172 9.14111 25.8116 8.01333 26.4183C7.50667 26.6849 7.15556 26.9649 6.96 27.2583C6.76444 27.5505 6.66667 27.8922 6.66667 28.2833V29.3616H17.1667C17.2478 29.6238 17.3472 29.9061 17.465 30.2083C17.5828 30.5105 17.7122 30.7838 17.8533 31.0283L5 31.0266ZM27.02 31.8283L26.7767 29.9049C26.3144 29.8094 25.8789 29.6477 25.47 29.4199C25.0611 29.1922 24.6928 28.9033 24.365 28.5533L22.5583 29.2699L21.8533 28.0716L23.385 26.9183C23.2017 26.4438 23.11 25.9549 23.11 25.4516C23.11 24.9483 23.2017 24.4588 23.385 23.9833L21.885 22.7649L22.59 21.5649L24.365 22.3149C24.6706 21.9649 25.0333 21.6816 25.4533 21.4649C25.8733 21.2483 26.3144 21.0916 26.7767 20.9949L27.02 19.0716H28.43L28.6417 20.9949C29.1028 21.0916 29.5433 21.2499 29.9633 21.4699C30.3833 21.6899 30.7461 21.9783 31.0517 22.3349L32.8267 21.5666L33.5317 22.7833L32.0317 24.0016C32.2161 24.4705 32.3083 24.9583 32.3083 25.4649C32.3083 25.9716 32.2161 26.4561 32.0317 26.9183L33.565 28.0716L32.86 29.2716L31.0517 28.5533C30.725 28.9033 30.3567 29.1922 29.9467 29.4199C29.5367 29.6477 29.1017 29.8094 28.6417 29.9049L28.43 31.8283H27.02ZM27.695 28.4633C28.525 28.4633 29.2339 28.1677 29.8217 27.5766C30.4094 26.9855 30.7039 26.2755 30.705 25.4466C30.7061 24.6177 30.4111 23.9088 29.82 23.3199C29.2289 22.7311 28.5189 22.4366 27.69 22.4366C26.86 22.4366 26.1506 22.7322 25.5617 23.3233C24.9728 23.9144 24.6783 24.6244 24.6783 25.4533C24.6783 26.2822 24.9739 26.9911 25.565 27.5799C26.1561 28.1688 26.8661 28.4633 27.695 28.4633ZM16.6667 17.3066C17.5833 17.3066 18.3683 16.9805 19.0217 16.3283C19.675 15.6761 20.0011 14.8916 20 13.9749C19.9989 13.0583 19.6728 12.2733 19.0217 11.6199C18.3706 10.9666 17.5856 10.6405 16.6667 10.6416C15.7478 10.6427 14.9633 10.9688 14.3133 11.6199C13.6633 12.2711 13.3367 13.0561 13.3333 13.9749C13.33 14.8938 13.6567 15.6783 14.3133 16.3283C14.97 16.9783 15.7544 17.3049 16.6667 17.3083" fill="black"/>
</svg>
