<svg width="40" height="40" viewBox="0 0 40 40" fill="none" xmlns="http://www.w3.org/2000/svg">
<path d="M7.69333 31.6666C6.92556 31.6666 6.285 31.4099 5.77167 30.8966C5.25833 30.3833 5.00111 29.7421 5 28.9733V11.0266C5 10.2588 5.25722 9.61825 5.77167 9.10492C6.28611 8.59158 6.92611 8.33436 7.69167 8.33325H32.3083C33.075 8.33325 33.715 8.59047 34.2283 9.10492C34.7417 9.61936 34.9989 10.2599 35 11.0266V28.9749C35 29.7416 34.7428 30.3821 34.2283 30.8966C33.7139 31.411 33.0739 31.6677 32.3083 31.6666H7.69333ZM20 20.1933L6.66667 11.4749V28.9749C6.66667 29.2738 6.76278 29.5194 6.955 29.7116C7.14722 29.9038 7.39333 29.9999 7.69333 29.9999H32.3083C32.6072 29.9999 32.8528 29.9038 33.045 29.7116C33.2372 29.5194 33.3333 29.2733 33.3333 28.9733V11.4733L20 20.1933ZM20 18.3333L32.82 9.99992H7.18L20 18.3333ZM6.66667 11.4749V9.99992V28.9749C6.66667 29.2738 6.76278 29.5194 6.955 29.7116C7.14722 29.9038 7.39333 29.9999 7.69333 29.9999H6.66667V11.4749Z" fill="#5E5E5E"/>
</svg>
