<svg width="24" height="34" viewBox="0 0 24 34" fill="none" xmlns="http://www.w3.org/2000/svg">
<path d="M12.0002 16.1667C10.8951 16.1667 9.83529 15.7277 9.05388 14.9463C8.27248 14.1649 7.8335 13.1051 7.8335 12C7.8335 10.895 8.27248 9.83516 9.05388 9.05376C9.83529 8.27236 10.8951 7.83337 12.0002 7.83337C13.1052 7.83337 14.165 8.27236 14.9464 9.05376C15.7278 9.83516 16.1668 10.895 16.1668 12C16.1668 12.5472 16.0591 13.089 15.8497 13.5946C15.6403 14.1001 15.3334 14.5594 14.9464 14.9463C14.5595 15.3332 14.1002 15.6401 13.5947 15.8495C13.0892 16.0589 12.5473 16.1667 12.0002 16.1667ZM12.0002 0.333374C8.90597 0.333374 5.93851 1.56254 3.75058 3.75046C1.56266 5.93839 0.333496 8.90585 0.333496 12C0.333496 20.75 12.0002 33.6667 12.0002 33.6667C12.0002 33.6667 23.6668 20.75 23.6668 12C23.6668 8.90585 22.4377 5.93839 20.2497 3.75046C18.0618 1.56254 15.0944 0.333374 12.0002 0.333374Z" fill="#B6B6B6"/>
</svg>
