<svg width="114" height="114" viewBox="0 0 114 114" fill="none" xmlns="http://www.w3.org/2000/svg">
<g filter="url(#filter0_d_99_413)">
<circle cx="57" cy="57" r="50" fill="#A6CBFF"/>
</g>
<path d="M43 32.5C40.2152 32.5 37.5445 33.6062 35.5754 35.5754C33.6062 37.5445 32.5 40.2152 32.5 43V71C32.5 73.7848 33.6062 76.4555 35.5754 78.4246C37.5445 80.3938 40.2152 81.5 43 81.5H60.633C60.5399 80.9214 60.4954 80.336 60.5 79.75C60.5 79.1503 60.5583 78.567 60.675 78H43C41.1435 78 39.363 77.2625 38.0503 75.9497C36.7375 74.637 36 72.8565 36 71V43C36 41.1435 36.7375 39.363 38.0503 38.0503C39.363 36.7375 41.1435 36 43 36H71C72.8565 36 74.637 36.7375 75.9497 38.0503C77.2625 39.363 78 41.1435 78 43V53.6435C79.2565 53.8535 80.436 54.291 81.5 54.9035V43C81.5 40.2152 80.3938 37.5445 78.4246 35.5754C76.4555 33.6062 73.7848 32.5 71 32.5H43ZM70.489 49.489C70.8176 49.1604 71.0022 48.7147 71.0022 48.25C71.0022 47.7853 70.8176 47.3396 70.489 47.011C70.1604 46.6824 69.7147 46.4978 69.25 46.4978C68.7853 46.4978 68.3396 46.6824 68.011 47.011L51.75 63.2755L45.989 57.511C45.6604 57.1824 45.2147 56.9978 44.75 56.9978C44.2853 56.9978 43.8396 57.1824 43.511 57.511C43.1824 57.8396 42.9978 58.2853 42.9978 58.75C42.9978 59.2147 43.1824 59.6604 43.511 59.989L50.511 66.989C50.6736 67.152 50.8667 67.2813 51.0793 67.3695C51.2919 67.4577 51.5198 67.5031 51.75 67.5031C51.9802 67.5031 52.2081 67.4577 52.4207 67.3695C52.6333 67.2813 52.8264 67.152 52.989 66.989L70.489 49.489ZM83.25 64C83.25 65.8565 82.5125 67.637 81.1997 68.9497C79.887 70.2625 78.1065 71 76.25 71C74.3935 71 72.613 70.2625 71.3003 68.9497C69.9875 67.637 69.25 65.8565 69.25 64C69.25 62.1435 69.9875 60.363 71.3003 59.0503C72.613 57.7375 74.3935 57 76.25 57C78.1065 57 79.887 57.7375 81.1997 59.0503C82.5125 60.363 83.25 62.1435 83.25 64ZM88.5 79.75C88.5 84.1075 85 88.5 76.25 88.5C67.5 88.5 64 84.125 64 79.75C64 78.3576 64.5531 77.0223 65.5377 76.0377C66.5223 75.0531 67.8576 74.5 69.25 74.5H83.25C84.6424 74.5 85.9777 75.0531 86.9623 76.0377C87.9469 77.0223 88.5 78.3576 88.5 79.75Z" fill="white"/>
<defs>
<filter id="filter0_d_99_413" x="0" y="0" width="114" height="114" filterUnits="userSpaceOnUse" color-interpolation-filters="sRGB">
<feFlood flood-opacity="0" result="BackgroundImageFix"/>
<feColorMatrix in="SourceAlpha" type="matrix" values="0 0 0 0 0 0 0 0 0 0 0 0 0 0 0 0 0 0 127 0" result="hardAlpha"/>
<feMorphology radius="2" operator="dilate" in="SourceAlpha" result="effect1_dropShadow_99_413"/>
<feOffset/>
<feGaussianBlur stdDeviation="2.5"/>
<feComposite in2="hardAlpha" operator="out"/>
<feColorMatrix type="matrix" values="0 0 0 0 0 0 0 0 0 0 0 0 0 0 0 0 0 0 0.14 0"/>
<feBlend mode="normal" in2="BackgroundImageFix" result="effect1_dropShadow_99_413"/>
<feBlend mode="normal" in="SourceGraphic" in2="effect1_dropShadow_99_413" result="shape"/>
</filter>
</defs>
</svg>
