<svg width="40" height="40" viewBox="0 0 40 40" fill="none" xmlns="http://www.w3.org/2000/svg">
<path d="M13 25C12.7348 25 12.4804 24.8946 12.2929 24.7071C12.1054 24.5196 12 24.2652 12 24C12 23.7348 12.1054 23.4804 12.2929 23.2929C12.4804 23.1054 12.7348 23 13 23H27C27.2652 23 27.5196 23.1054 27.7071 23.2929C27.8946 23.4804 28 23.7348 28 24C28 24.2652 27.8946 24.5196 27.7071 24.7071C27.5196 24.8946 27.2652 25 27 25H13ZM13 30C12.7348 30 12.4804 29.8946 12.2929 29.7071C12.1054 29.5196 12 29.2652 12 29C12 28.7348 12.1054 28.4804 12.2929 28.2929C12.4804 28.1054 12.7348 28 13 28H27C27.2652 28 27.5196 28.1054 27.7071 28.2929C27.8946 28.4804 28 28.7348 28 29C28 29.2652 27.8946 29.5196 27.7071 29.7071C27.5196 29.8946 27.2652 30 27 30H13Z" fill="black"/>
<path fill-rule="evenodd" clip-rule="evenodd" d="M22.37 2H9C8.20435 2 7.44129 2.31607 6.87868 2.87868C6.31607 3.44129 6 4.20435 6 5V35C6 35.7957 6.31607 36.5587 6.87868 37.1213C7.44129 37.6839 8.20435 38 9 38H31C31.7956 38 32.5587 37.6839 33.1213 37.1213C33.6839 36.5587 34 35.7957 34 35V14.404C33.9998 13.6529 33.7179 12.9293 33.21 12.376L24.582 2.972C24.3008 2.66549 23.959 2.4208 23.5782 2.25347C23.1974 2.08614 22.7859 1.99982 22.37 2ZM8 5C8 4.73478 8.10536 4.48043 8.29289 4.29289C8.48043 4.10536 8.73478 4 9 4H22.37C22.5088 3.99985 22.646 4.02858 22.7731 4.08436C22.9001 4.14014 23.0142 4.22175 23.108 4.324L31.736 13.728C31.9055 13.9123 31.9998 14.1536 32 14.404V35C32 35.2652 31.8946 35.5196 31.7071 35.7071C31.5196 35.8946 31.2652 36 31 36H9C8.73478 36 8.48043 35.8946 8.29289 35.7071C8.10536 35.5196 8 35.2652 8 35V5Z" fill="black"/>
<path d="M23 4.19995V13.6H32.4" stroke="black" stroke-linecap="round" stroke-linejoin="round"/>
<path d="M16.2679 12.266C16.5535 12.2748 16.838 12.2261 17.1044 12.1228C17.3708 12.0196 17.6138 11.8638 17.8189 11.6649C18.024 11.466 18.1871 11.2279 18.2985 10.9647C18.4098 10.7016 18.4672 10.4188 18.4672 10.133C18.4672 9.84728 18.4098 9.56446 18.2985 9.30131C18.1871 9.03817 18.024 8.80007 17.8189 8.60114C17.6138 8.40221 17.3708 8.24649 17.1044 8.14323C16.838 8.03998 16.5535 7.99128 16.2679 8.00002C15.7135 8.017 15.1875 8.24917 14.8013 8.64733C14.4152 9.04549 14.1992 9.57836 14.1992 10.133C14.1992 10.6877 14.4152 11.2206 14.8013 11.6187C15.1875 12.0169 15.7135 12.249 16.2679 12.266Z" fill="black"/>
<path fill-rule="evenodd" clip-rule="evenodd" d="M20.532 16.888C20.532 14.62 18.622 12.978 16.266 12.978C13.91 12.978 12 14.618 12 16.888V17.956C12.0005 18.1445 12.0758 18.3251 12.2092 18.4582C12.3427 18.5913 12.5235 18.666 12.712 18.666H19.822C20.0101 18.6655 20.1904 18.5905 20.3235 18.4575C20.4565 18.3245 20.5315 18.1442 20.532 17.956V16.888Z" fill="black"/>
</svg>
