<svg width="40" height="40" viewBox="0 0 40 40" fill="none" xmlns="http://www.w3.org/2000/svg">
<path d="M12.5 11.25H17.5M12.5 20H27.5M12.5 25H27.5M12.5 30H17.5M10 36.25H30C30.663 36.25 31.2989 35.9866 31.7678 35.5178C32.2366 35.0489 32.5 34.413 32.5 33.75V6.25C32.5 5.58696 32.2366 4.95107 31.7678 4.48223C31.2989 4.01339 30.663 3.75 30 3.75H10C9.33696 3.75 8.70107 4.01339 8.23223 4.48223C7.76339 4.95107 7.5 5.58696 7.5 6.25V33.75C7.5 34.413 7.76339 35.0489 8.23223 35.5178C8.70107 35.9866 9.33696 36.25 10 36.25Z" stroke="black" stroke-width="2" stroke-linecap="round" stroke-linejoin="round"/>
<path d="M27.5 11.875C27.8452 11.875 28.125 11.5952 28.125 11.25C28.125 10.9048 27.8452 10.625 27.5 10.625C27.1548 10.625 26.875 10.9048 26.875 11.25C26.875 11.5952 27.1548 11.875 27.5 11.875Z" fill="black" stroke="black"/>
</svg>
