<svg width="22" height="21" viewBox="0 0 22 21" fill="none" xmlns="http://www.w3.org/2000/svg">
<path d="M15.4722 13.0093H14.5506L14.2239 12.7118C15.4068 11.4161 16.0569 9.76181 16.0556 8.05095C16.0556 6.63444 15.6108 5.24973 14.7775 4.07194C13.9443 2.89415 12.7599 1.97617 11.3742 1.4341C9.98857 0.892019 8.46381 0.750187 6.99279 1.02654C5.52177 1.30288 4.17055 1.985 3.11 2.98663C2.04945 3.98826 1.32721 5.26441 1.0346 6.65371C0.742 8.04301 0.892175 9.48306 1.46614 10.7917C2.0401 12.1004 3.01208 13.219 4.25915 14.006C5.50622 14.7929 6.97238 15.213 8.47223 15.213C10.3506 15.213 12.0772 14.5629 13.4072 13.4831L13.7222 13.7916V14.6621L19.5556 20.1603L21.2939 18.5185L15.4722 13.0093ZM8.47223 13.0093C5.56723 13.0093 3.22223 10.7946 3.22223 8.05095C3.22223 5.30734 5.56723 3.09262 8.47223 3.09262C11.3772 3.09262 13.7222 5.30734 13.7222 8.05095C13.7222 10.7946 11.3772 13.0093 8.47223 13.0093Z" fill="#B6B6B6"/>
</svg>
