<svg width="40" height="40" viewBox="0 0 40 40" fill="none" xmlns="http://www.w3.org/2000/svg">
<path d="M19.9941 1.57715C16.6613 1.57777 13.391 2.4825 10.5317 4.19496C7.67244 5.90742 5.33126 8.36346 3.7576 11.3014C2.18395 14.2394 1.43676 17.5492 1.59565 20.8783C1.75454 24.2074 2.81355 27.431 4.65986 30.2057L1.57129 38.42L11.9141 36.5486C14.4051 37.7672 17.139 38.4078 19.912 38.4226C22.685 38.4374 25.4256 37.826 27.9294 36.634C30.4331 35.442 32.6355 33.7001 34.3723 31.5383C36.1091 29.3765 37.3354 26.8505 37.9599 24.1487C38.5843 21.4468 38.5908 18.6389 37.9788 15.9342C37.3668 13.2295 36.1522 10.6979 34.4254 8.52811C32.6986 6.35831 30.5043 4.60631 28.006 3.40276C25.5078 2.19921 22.7672 1.57516 19.9941 1.57715Z" stroke="black" stroke-linecap="round" stroke-linejoin="round"/>
<path d="M15.7432 15.7485C15.7432 14.9076 15.9925 14.0857 16.4597 13.3865C16.9268 12.6874 17.5908 12.1425 18.3676 11.8207C19.1445 11.4989 19.9993 11.4147 20.824 11.5788C21.6487 11.7428 22.4062 12.1477 23.0008 12.7423C23.5954 13.3369 24.0003 14.0944 24.1643 14.9191C24.3284 15.7438 24.2442 16.5986 23.9224 17.3755C23.6006 18.1523 23.0557 18.8163 22.3566 19.2834C21.6574 19.7506 20.8354 19.9999 19.9946 19.9999V22.8342M20.0003 29.9199C19.8124 29.9199 19.6322 29.8453 19.4993 29.7124C19.3664 29.5795 19.2917 29.3993 19.2917 29.2114C19.2917 29.0234 19.3664 28.8432 19.4993 28.7103C19.6322 28.5774 19.8124 28.5028 20.0003 28.5028C20.1882 28.5028 20.3685 28.5774 20.5013 28.7103C20.6342 28.8432 20.7089 29.0234 20.7089 29.2114C20.7089 29.3993 20.6342 29.5795 20.5013 29.7124C20.3685 29.8453 20.1882 29.9199 20.0003 29.9199Z" stroke="black" stroke-linecap="round" stroke-linejoin="round"/>
</svg>
