<svg width="266" height="341" viewBox="0 0 266 341" fill="none" xmlns="http://www.w3.org/2000/svg">
<circle cx="4" cy="4" r="4" transform="matrix(-1 0 0 1 267 12)" fill="#FF6700"/>
<circle cx="4" cy="4" r="4" transform="matrix(-1 0 0 1 267 37)" fill="#FF6700"/>
<circle cx="4" cy="4" r="4" transform="matrix(-1 0 0 1 267 62)" fill="#FF6700"/>
<circle cx="4" cy="4" r="4" transform="matrix(-1 0 0 1 267 87)" fill="#FF6700"/>
<circle cx="4" cy="4" r="4" transform="matrix(-1 0 0 1 267 112)" fill="#FF6700"/>
<circle cx="4" cy="4" r="4" transform="matrix(-1 0 0 1 267 137)" fill="#FF6700"/>
<circle cx="4" cy="4" r="4" transform="matrix(-1 0 0 1 267 162)" fill="#FF6700"/>
<circle cx="4" cy="4" r="4" transform="matrix(-1 0 0 1 267 187)" fill="#FF6700"/>
<circle cx="4" cy="4" r="4" transform="matrix(-1 0 0 1 267 212)" fill="#FF6700"/>
<circle cx="4" cy="4" r="4" transform="matrix(-1 0 0 1 267 237)" fill="#FF6700"/>
<circle cx="4" cy="4" r="4" transform="matrix(-1 0 0 1 267 262)" fill="#FF6700"/>
<circle cx="4" cy="4" r="4" transform="matrix(-1 0 0 1 267 287)" fill="#FF6700"/>
<circle cx="4" cy="4" r="4" transform="matrix(-1 0 0 1 267 312)" fill="#FF6700"/>
<circle cx="4" cy="4" r="4" transform="matrix(-1 0 0 1 236 12)" fill="#FF6700"/>
<circle cx="4" cy="4" r="4" transform="matrix(-1 0 0 1 236 37)" fill="#FF6700"/>
<circle cx="4" cy="4" r="4" transform="matrix(-1 0 0 1 236 62)" fill="#FF6700"/>
<circle cx="4" cy="4" r="4" transform="matrix(-1 0 0 1 236 87)" fill="#FF6700"/>
<circle cx="4" cy="4" r="4" transform="matrix(-1 0 0 1 236 112)" fill="#FF6700"/>
<circle cx="4" cy="4" r="4" transform="matrix(-1 0 0 1 236 137)" fill="#FF6700"/>
<circle cx="4" cy="4" r="4" transform="matrix(-1 0 0 1 236 162)" fill="#FF6700"/>
<circle cx="4" cy="4" r="4" transform="matrix(-1 0 0 1 236 187)" fill="#FF6700"/>
<circle cx="4" cy="4" r="4" transform="matrix(-1 0 0 1 236 212)" fill="#FF6700"/>
<circle cx="4" cy="4" r="4" transform="matrix(-1 0 0 1 236 237)" fill="#FF6700"/>
<circle cx="4" cy="4" r="4" transform="matrix(-1 0 0 1 236 262)" fill="#FF6700"/>
<circle cx="4" cy="4" r="4" transform="matrix(-1 0 0 1 236 287)" fill="#FF6700"/>
<circle cx="4" cy="4" r="4" transform="matrix(-1 0 0 1 236 312)" fill="#FF6700"/>
<circle cx="4" cy="4" r="4" transform="matrix(-1 0 0 1 205 12)" fill="#FF6700"/>
<circle cx="4" cy="4" r="4" transform="matrix(-1 0 0 1 205 37)" fill="#FF6700"/>
<circle cx="4" cy="4" r="4" transform="matrix(-1 0 0 1 205 62)" fill="#FF6700"/>
<circle cx="4" cy="4" r="4" transform="matrix(-1 0 0 1 205 87)" fill="#FF6700"/>
<circle cx="4" cy="4" r="4" transform="matrix(-1 0 0 1 205 112)" fill="#FF6700"/>
<circle cx="4" cy="4" r="4" transform="matrix(-1 0 0 1 205 137)" fill="#FF6700"/>
<circle cx="4" cy="4" r="4" transform="matrix(-1 0 0 1 205 162)" fill="#FF6700"/>
<circle cx="4" cy="4" r="4" transform="matrix(-1 0 0 1 205 187)" fill="#FF6700"/>
<circle cx="4" cy="4" r="4" transform="matrix(-1 0 0 1 205 212)" fill="#FF6700"/>
<circle cx="4" cy="4" r="4" transform="matrix(-1 0 0 1 205 237)" fill="#FF6700"/>
<circle cx="4" cy="4" r="4" transform="matrix(-1 0 0 1 205 262)" fill="#FF6700"/>
<circle cx="4" cy="4" r="4" transform="matrix(-1 0 0 1 205 287)" fill="#FF6700"/>
<circle cx="4" cy="4" r="4" transform="matrix(-1 0 0 1 205 312)" fill="#FF6700"/>
<circle cx="4" cy="4" r="4" transform="matrix(-1 0 0 1 174 12)" fill="#FF6700"/>
<circle cx="4" cy="4" r="4" transform="matrix(-1 0 0 1 174 37)" fill="#FF6700"/>
<circle cx="4" cy="4" r="4" transform="matrix(-1 0 0 1 174 62)" fill="#FF6700"/>
<circle cx="4" cy="4" r="4" transform="matrix(-1 0 0 1 174 87)" fill="#FF6700"/>
<circle cx="4" cy="4" r="4" transform="matrix(-1 0 0 1 174 112)" fill="#FF6700"/>
<circle cx="4" cy="4" r="4" transform="matrix(-1 0 0 1 174 137)" fill="#FF6700"/>
<circle cx="4" cy="4" r="4" transform="matrix(-1 0 0 1 174 162)" fill="#FF6700"/>
<circle cx="4" cy="4" r="4" transform="matrix(-1 0 0 1 174 187)" fill="#FF6700"/>
<circle cx="4" cy="4" r="4" transform="matrix(-1 0 0 1 174 212)" fill="#FF6700"/>
<circle cx="4" cy="4" r="4" transform="matrix(-1 0 0 1 174 237)" fill="#FF6700"/>
<circle cx="4" cy="4" r="4" transform="matrix(-1 0 0 1 174 262)" fill="#FF6700"/>
<circle cx="4" cy="4" r="4" transform="matrix(-1 0 0 1 174 287)" fill="#FF6700"/>
<circle cx="4" cy="4" r="4" transform="matrix(-1 0 0 1 174 312)" fill="#FF6700"/>
<circle cx="4" cy="4" r="4" transform="matrix(-1 0 0 1 143 12)" fill="#FF6700"/>
<circle cx="4" cy="4" r="4" transform="matrix(-1 0 0 1 143 37)" fill="#FF6700"/>
<circle cx="4" cy="4" r="4" transform="matrix(-1 0 0 1 143 62)" fill="#FF6700"/>
<circle cx="4" cy="4" r="4" transform="matrix(-1 0 0 1 143 87)" fill="#FF6700"/>
<circle cx="4" cy="4" r="4" transform="matrix(-1 0 0 1 143 112)" fill="#FF6700"/>
<circle cx="4" cy="4" r="4" transform="matrix(-1 0 0 1 143 137)" fill="#FF6700"/>
<circle cx="4" cy="4" r="4" transform="matrix(-1 0 0 1 143 162)" fill="#FF6700"/>
<circle cx="4" cy="4" r="4" transform="matrix(-1 0 0 1 143 187)" fill="#FF6700"/>
<circle cx="4" cy="4" r="4" transform="matrix(-1 0 0 1 143 212)" fill="#FF6700"/>
<circle cx="4" cy="4" r="4" transform="matrix(-1 0 0 1 143 237)" fill="#FF6700"/>
<circle cx="4" cy="4" r="4" transform="matrix(-1 0 0 1 143 262)" fill="#FF6700"/>
<circle cx="4" cy="4" r="4" transform="matrix(-1 0 0 1 143 287)" fill="#FF6700"/>
<circle cx="4" cy="4" r="4" transform="matrix(-1 0 0 1 143 312)" fill="#FF6700"/>
<circle cx="4" cy="4" r="4" transform="matrix(-1 0 0 1 112 12)" fill="#FF6700"/>
<circle cx="4" cy="4" r="4" transform="matrix(-1 0 0 1 112 37)" fill="#FF6700"/>
<circle cx="4" cy="4" r="4" transform="matrix(-1 0 0 1 112 62)" fill="#FF6700"/>
<circle cx="4" cy="4" r="4" transform="matrix(-1 0 0 1 112 87)" fill="#FF6700"/>
<circle cx="4" cy="4" r="4" transform="matrix(-1 0 0 1 112 112)" fill="#FF6700"/>
<circle cx="4" cy="4" r="4" transform="matrix(-1 0 0 1 112 137)" fill="#FF6700"/>
<circle cx="4" cy="4" r="4" transform="matrix(-1 0 0 1 112 162)" fill="#FF6700"/>
<circle cx="4" cy="4" r="4" transform="matrix(-1 0 0 1 112 187)" fill="#FF6700"/>
<circle cx="4" cy="4" r="4" transform="matrix(-1 0 0 1 112 212)" fill="#FF6700"/>
<circle cx="4" cy="4" r="4" transform="matrix(-1 0 0 1 112 237)" fill="#FF6700"/>
<circle cx="4" cy="4" r="4" transform="matrix(-1 0 0 1 112 262)" fill="#FF6700"/>
<circle cx="4" cy="4" r="4" transform="matrix(-1 0 0 1 112 287)" fill="#FF6700"/>
<circle cx="4" cy="4" r="4" transform="matrix(-1 0 0 1 112 312)" fill="#FF6700"/>
<circle cx="4" cy="4" r="4" transform="matrix(-1 0 0 1 81 12)" fill="#FF6700"/>
<circle cx="4" cy="4" r="4" transform="matrix(-1 0 0 1 81 37)" fill="#FF6700"/>
<circle cx="4" cy="4" r="4" transform="matrix(-1 0 0 1 81 62)" fill="#FF6700"/>
<circle cx="4" cy="4" r="4" transform="matrix(-1 0 0 1 81 87)" fill="#FF6700"/>
<circle cx="4" cy="4" r="4" transform="matrix(-1 0 0 1 81 112)" fill="#FF6700"/>
<circle cx="4" cy="4" r="4" transform="matrix(-1 0 0 1 81 137)" fill="#FF6700"/>
<circle cx="4" cy="4" r="4" transform="matrix(-1 0 0 1 81 162)" fill="#FF6700"/>
<circle cx="4" cy="4" r="4" transform="matrix(-1 0 0 1 81 187)" fill="#FF6700"/>
<circle cx="4" cy="4" r="4" transform="matrix(-1 0 0 1 81 212)" fill="#FF6700"/>
<circle cx="4" cy="4" r="4" transform="matrix(-1 0 0 1 81 237)" fill="#FF6700"/>
<circle cx="4" cy="4" r="4" transform="matrix(-1 0 0 1 81 262)" fill="#FF6700"/>
<circle cx="4" cy="4" r="4" transform="matrix(-1 0 0 1 81 287)" fill="#FF6700"/>
<circle cx="4" cy="4" r="4" transform="matrix(-1 0 0 1 81 312)" fill="#FF6700"/>
<circle cx="4" cy="4" r="4" transform="matrix(-1 0 0 1 50 12)" fill="#FF6700"/>
<circle cx="4" cy="4" r="4" transform="matrix(-1 0 0 1 50 37)" fill="#FF6700"/>
<circle cx="4" cy="4" r="4" transform="matrix(-1 0 0 1 50 62)" fill="#FF6700"/>
<circle cx="4" cy="4" r="4" transform="matrix(-1 0 0 1 50 87)" fill="#FF6700"/>
<circle cx="4" cy="4" r="4" transform="matrix(-1 0 0 1 50 112)" fill="#FF6700"/>
<circle cx="4" cy="4" r="4" transform="matrix(-1 0 0 1 50 137)" fill="#FF6700"/>
<circle cx="4" cy="4" r="4" transform="matrix(-1 0 0 1 50 162)" fill="#FF6700"/>
<circle cx="4" cy="4" r="4" transform="matrix(-1 0 0 1 50 187)" fill="#FF6700"/>
<circle cx="4" cy="4" r="4" transform="matrix(-1 0 0 1 50 212)" fill="#FF6700"/>
<circle cx="4" cy="4" r="4" transform="matrix(-1 0 0 1 50 237)" fill="#FF6700"/>
<circle cx="4" cy="4" r="4" transform="matrix(-1 0 0 1 50 262)" fill="#FF6700"/>
<circle cx="4" cy="4" r="4" transform="matrix(-1 0 0 1 50 287)" fill="#FF6700"/>
<circle cx="4" cy="4" r="4" transform="matrix(-1 0 0 1 50 312)" fill="#FF6700"/>
<circle cx="4" cy="4" r="4" transform="matrix(-1 0 0 1 19 12)" fill="#FF6700"/>
<circle cx="4" cy="4" r="4" transform="matrix(-1 0 0 1 19 37)" fill="#FF6700"/>
<circle cx="4" cy="4" r="4" transform="matrix(-1 0 0 1 19 62)" fill="#FF6700"/>
<circle cx="4" cy="4" r="4" transform="matrix(-1 0 0 1 19 87)" fill="#FF6700"/>
<circle cx="4" cy="4" r="4" transform="matrix(-1 0 0 1 19 112)" fill="#FF6700"/>
<circle cx="4" cy="4" r="4" transform="matrix(-1 0 0 1 19 137)" fill="#FF6700"/>
<circle cx="4" cy="4" r="4" transform="matrix(-1 0 0 1 19 162)" fill="#FF6700"/>
<circle cx="4" cy="4" r="4" transform="matrix(-1 0 0 1 19 187)" fill="#FF6700"/>
<circle cx="4" cy="4" r="4" transform="matrix(-1 0 0 1 19 212)" fill="#FF6700"/>
<circle cx="4" cy="4" r="4" transform="matrix(-1 0 0 1 19 237)" fill="#FF6700"/>
<circle cx="4" cy="4" r="4" transform="matrix(-1 0 0 1 19 262)" fill="#FF6700"/>
<circle cx="4" cy="4" r="4" transform="matrix(-1 0 0 1 19 287)" fill="#FF6700"/>
<circle cx="4" cy="4" r="4" transform="matrix(-1 0 0 1 19 312)" fill="#FF6700"/>
<rect width="266" height="341" transform="matrix(-1 0 0 1 266 0)" fill="url(#paint0_linear_27_450)"/>
<defs>
<linearGradient id="paint0_linear_27_450" x1="229" y1="171.078" x2="-489" y2="171.078" gradientUnits="userSpaceOnUse">
<stop stop-color="white"/>
<stop offset="1" stop-color="white" stop-opacity="0.1"/>
</linearGradient>
</defs>
</svg>
