<svg width="64" height="65" viewBox="0 0 64 65" fill="none" xmlns="http://www.w3.org/2000/svg">
<g filter="url(#filter0_d_1_729)">
<circle cx="32" cy="32.0732" r="25" fill="#FFBA00"/>
</g>
<path d="M48.3437 22.6982C47.1406 23.2451 45.8437 23.6045 44.5 23.7764C45.875 22.9482 46.9375 21.6357 47.4375 20.0576C46.1406 20.8389 44.7031 21.3857 43.1875 21.6982C41.9531 20.3545 40.2188 19.5732 38.25 19.5732C34.5781 19.5732 31.5781 22.5732 31.5781 26.2764C31.5781 26.8076 31.6406 27.3232 31.75 27.8076C26.1875 27.5264 21.2344 24.8545 17.9375 20.8076C17.3594 21.792 17.0313 22.9482 17.0313 24.167C17.0313 26.4951 18.2031 28.5576 20.0156 29.7295C18.9062 29.7295 17.875 29.417 16.9688 28.9482V28.9951C16.9688 32.2451 19.2813 34.9639 22.3438 35.5732C21.3607 35.8435 20.3282 35.8809 19.3281 35.6826C19.7525 37.0146 20.5837 38.1801 21.7047 39.0153C22.8258 39.8505 24.1804 40.3134 25.5781 40.3389C23.2089 42.2147 20.2719 43.2285 17.25 43.2139C16.7188 43.2139 16.1875 43.1826 15.6562 43.1201C18.625 45.0264 22.1562 46.1357 25.9375 46.1357C38.25 46.1357 45.0156 35.917 45.0156 27.0576C45.0156 26.7607 45.0156 26.4795 45 26.1826C46.3125 25.2451 47.4375 24.0576 48.3437 22.6982Z" fill="white"/>
<defs>
<filter id="filter0_d_1_729" x="0" y="0.0732422" width="64" height="64" filterUnits="userSpaceOnUse" color-interpolation-filters="sRGB">
<feFlood flood-opacity="0" result="BackgroundImageFix"/>
<feColorMatrix in="SourceAlpha" type="matrix" values="0 0 0 0 0 0 0 0 0 0 0 0 0 0 0 0 0 0 127 0" result="hardAlpha"/>
<feMorphology radius="1" operator="dilate" in="SourceAlpha" result="effect1_dropShadow_1_729"/>
<feOffset/>
<feGaussianBlur stdDeviation="3"/>
<feComposite in2="hardAlpha" operator="out"/>
<feColorMatrix type="matrix" values="0 0 0 0 0 0 0 0 0 0 0 0 0 0 0 0 0 0 0.15 0"/>
<feBlend mode="normal" in2="BackgroundImageFix" result="effect1_dropShadow_1_729"/>
<feBlend mode="normal" in="SourceGraphic" in2="effect1_dropShadow_1_729" result="shape"/>
</filter>
</defs>
</svg>
