<svg width="40" height="40" viewBox="0 0 40 40" fill="none" xmlns="http://www.w3.org/2000/svg">
<path d="M31.6673 6.66671H28.334V5.00004C28.334 4.55801 28.1584 4.13409 27.8458 3.82153C27.5333 3.50897 27.1093 3.33337 26.6673 3.33337C26.2253 3.33337 25.8014 3.50897 25.4888 3.82153C25.1762 4.13409 25.0007 4.55801 25.0007 5.00004V6.66671H15.0007V5.00004C15.0007 4.55801 14.8251 4.13409 14.5125 3.82153C14.1999 3.50897 13.776 3.33337 13.334 3.33337C12.892 3.33337 12.468 3.50897 12.1555 3.82153C11.8429 4.13409 11.6673 4.55801 11.6673 5.00004V6.66671H8.33398C7.0079 6.66671 5.73613 7.19349 4.79845 8.13117C3.86077 9.06886 3.33398 10.3406 3.33398 11.6667V31.6667C3.33398 32.9928 3.86077 34.2646 4.79845 35.2022C5.73613 36.1399 7.0079 36.6667 8.33398 36.6667H31.6673C32.9934 36.6667 34.2652 36.1399 35.2029 35.2022C36.1405 34.2646 36.6673 32.9928 36.6673 31.6667V11.6667C36.6673 10.3406 36.1405 9.06886 35.2029 8.13117C34.2652 7.19349 32.9934 6.66671 31.6673 6.66671ZM33.334 31.6667C33.334 32.1087 33.1584 32.5327 32.8458 32.8452C32.5333 33.1578 32.1093 33.3334 31.6673 33.3334H8.33398C7.89196 33.3334 7.46803 33.1578 7.15547 32.8452C6.84291 32.5327 6.66732 32.1087 6.66732 31.6667V20H33.334V31.6667ZM33.334 16.6667H6.66732V11.6667C6.66732 11.2247 6.84291 10.8008 7.15547 10.4882C7.46803 10.1756 7.89196 10 8.33398 10H11.6673V11.6667C11.6673 12.1087 11.8429 12.5327 12.1555 12.8452C12.468 13.1578 12.892 13.3334 13.334 13.3334C13.776 13.3334 14.1999 13.1578 14.5125 12.8452C14.8251 12.5327 15.0007 12.1087 15.0007 11.6667V10H25.0007V11.6667C25.0007 12.1087 25.1762 12.5327 25.4888 12.8452C25.8014 13.1578 26.2253 13.3334 26.6673 13.3334C27.1093 13.3334 27.5333 13.1578 27.8458 12.8452C28.1584 12.5327 28.334 12.1087 28.334 11.6667V10H31.6673C32.1093 10 32.5333 10.1756 32.8458 10.4882C33.1584 10.8008 33.334 11.2247 33.334 11.6667V16.6667Z" fill="#5E5E5E"/>
</svg>
