<svg width="40" height="40" viewBox="0 0 40 40" fill="none" xmlns="http://www.w3.org/2000/svg">
<path d="M28.333 11.6666H11.6663C11.2243 11.6666 10.8004 11.8422 10.4878 12.1547C10.1753 12.4673 9.99967 12.8912 9.99967 13.3333C9.99967 13.7753 10.1753 14.1992 10.4878 14.5118C10.8004 14.8243 11.2243 14.9999 11.6663 14.9999H28.333C28.775 14.9999 29.199 14.8243 29.5115 14.5118C29.8241 14.1992 29.9997 13.7753 29.9997 13.3333C29.9997 12.8912 29.8241 12.4673 29.5115 12.1547C29.199 11.8422 28.775 11.6666 28.333 11.6666ZM28.333 18.3333H11.6663C11.2243 18.3333 10.8004 18.5088 10.4878 18.8214C10.1753 19.134 9.99967 19.5579 9.99967 19.9999C9.99967 20.4419 10.1753 20.8659 10.4878 21.1784C10.8004 21.491 11.2243 21.6666 11.6663 21.6666H28.333C28.775 21.6666 29.199 21.491 29.5115 21.1784C29.8241 20.8659 29.9997 20.4419 29.9997 19.9999C29.9997 19.5579 29.8241 19.134 29.5115 18.8214C29.199 18.5088 28.775 18.3333 28.333 18.3333ZM31.6663 3.33325H8.33301C7.00693 3.33325 5.73516 3.86004 4.79747 4.79772C3.85979 5.7354 3.33301 7.00717 3.33301 8.33325V24.9999C3.33301 26.326 3.85979 27.5978 4.79747 28.5355C5.73516 29.4731 7.00693 29.9999 8.33301 29.9999H27.6497L33.8163 36.1833C33.9721 36.3377 34.1568 36.4599 34.3598 36.5429C34.5629 36.6258 34.7803 36.6679 34.9997 36.6666C35.2183 36.6722 35.4352 36.6266 35.633 36.5333C35.9374 36.4082 36.1979 36.1959 36.3818 35.923C36.5657 35.6502 36.6647 35.329 36.6663 34.9999V8.33325C36.6663 7.00717 36.1396 5.7354 35.2019 4.79772C34.2642 3.86004 32.9924 3.33325 31.6663 3.33325ZM33.333 30.9833L29.5163 27.1499C29.3606 26.9955 29.1759 26.8732 28.9729 26.7903C28.7698 26.7074 28.5524 26.6653 28.333 26.6666H8.33301C7.89098 26.6666 7.46706 26.491 7.1545 26.1784C6.84194 25.8659 6.66634 25.4419 6.66634 24.9999V8.33325C6.66634 7.89122 6.84194 7.4673 7.1545 7.15474C7.46706 6.84218 7.89098 6.66659 8.33301 6.66659H31.6663C32.1084 6.66659 32.5323 6.84218 32.8449 7.15474C33.1574 7.4673 33.333 7.89122 33.333 8.33325V30.9833Z" fill="black"/>
</svg>
