<svg width="22" height="29" viewBox="0 0 22 29" fill="none" xmlns="http://www.w3.org/2000/svg">
<path d="M16.64 6.4V7.08H21.8V9.72H16.44C16.2 11.56 15.6667 13 14.84 14.04C14.04 15.08 12.8667 15.8267 11.32 16.28C9.8 16.7333 7.77333 16.96 5.24 16.96V20.12C5.24 23.72 6.81333 25.52 9.96 25.52C13.0533 25.52 14.6 23.7867 14.6 20.32H17.96C17.9333 22.9867 17.2267 25 15.84 26.36C14.4533 27.72 12.48 28.4 9.92 28.4C7.28 28.4 5.26667 27.6667 3.88 26.2C2.52 24.7333 1.84 22.68 1.84 20.04V14.4C4.88 14.4 7.12 14.3067 8.56 14.12C10.0267 13.9067 11.0933 13.48 11.76 12.84C12.4267 12.1733 12.8533 11.1333 13.04 9.72H0.0400001V7.08H13.2V6.36V2.76H0.0400001V0.0799994H21.8V2.76H16.64V6.4Z" fill="#B6B6B6"/>
</svg>
